<svg width="119" height="67" viewBox="0 0 119 67" fill="none" xmlns="http://www.w3.org/2000/svg">
<g clip-path="url(#clip0_28_35311)">
<path d="M81.8132 0H74.375V7.44484H81.8132V0Z" fill="#CFF0FF"/>
<path d="M81.8132 7.44484H74.375V14.8897H81.8132V7.44484Z" fill="#CFF0FF"/>
<path d="M52.0632 22.3345H44.625V29.7793H52.0632V22.3345Z" fill="#CFF0FF"/>
<path d="M66.9401 22.3345H59.502V29.7793H66.9401V22.3345Z" fill="#CFF0FF"/>
<path d="M74.3776 22.3345H66.9395V29.7793H74.3776V22.3345Z" fill="#CFF0FF"/>
<path d="M81.8132 22.3345H74.375V29.7793H81.8132V22.3345Z" fill="#CFF0FF"/>
<path d="M59.5016 22.3345H52.0635V29.7793H59.5016V22.3345Z" fill="#CFF0FF"/>
<path d="M89.2507 22.3345H81.8125V29.7793H89.2507V22.3345Z" fill="#CFF0FF"/>
<path d="M89.2507 0H81.8125V7.44484H89.2507V0Z" fill="#CFF0FF"/>
<path d="M89.2507 7.44484H81.8125V14.8897H89.2507V7.44484Z" fill="#CFF0FF"/>
<path d="M89.2507 14.8897H81.8125V22.3345H89.2507V14.8897Z" fill="#CFF0FF"/>
<path d="M44.6257 22.3345H37.1875V29.7793H44.6257V22.3345Z" fill="#CFF0FF"/>
<path d="M29.7526 22.3345H22.3145V29.7793H29.7526V22.3345Z" fill="#CFF0FF"/>
<path d="M37.1872 22.3345H29.749V29.7793H37.1872V22.3345Z" fill="#CFF0FF"/>
<path d="M22.3141 22.3345H14.876V29.7793H22.3141V22.3345Z" fill="#CFF0FF"/>
<path d="M74.3776 7.44484H66.9395V14.8897H74.3776V7.44484Z" fill="#CFF0FF"/>
<path d="M74.3776 0H66.9395V7.44484H74.3776V0Z" fill="#CFF0FF"/>
<path d="M66.9401 7.44484H59.502V14.8897H66.9401V7.44484Z" fill="#CFF0FF"/>
<path d="M59.5016 7.44484H52.0635V14.8897H59.5016V7.44484Z" fill="#CFF0FF"/>
<path d="M81.8132 14.8897H74.375V22.3345H81.8132V14.8897Z" fill="#CFF0FF"/>
<path d="M44.6257 14.8897H37.1875V22.3345H44.6257V14.8897Z" fill="#CFF0FF"/>
<path d="M74.3776 14.8897H66.9395V22.3345H74.3776V14.8897Z" fill="#CFF0FF"/>
<path d="M66.9401 14.8897H59.502V22.3345H66.9401V14.8897Z" fill="#CFF0FF"/>
<path d="M59.5016 14.8897H52.0635V22.3345H59.5016V14.8897Z" fill="#CFF0FF"/>
<path d="M52.0632 14.8897H44.625V22.3345H52.0632V14.8897Z" fill="#CFF0FF"/>
<path d="M96.6891 37.2207H89.251V44.6655H96.6891V37.2207Z" fill="#ABE1F4"/>
<path d="M104.128 37.2207H96.6895V44.6655H104.128V37.2207Z" fill="#ABE1F4"/>
<path d="M104.128 7.44484H96.6895V14.8897H104.128V7.44484Z" fill="#CFF0FF"/>
<path d="M104.128 29.7758H96.6895V37.2207H104.128V29.7758Z" fill="#ABE1F4"/>
<path d="M104.128 14.8897H96.6895V22.3345H104.128V14.8897Z" fill="#CFF0FF"/>
<path d="M104.128 0H96.6895V7.44484H104.128V0Z" fill="#CFF0FF"/>
<path d="M22.3141 37.2207H14.876V44.6655H22.3141V37.2207Z" fill="#ABE1F4"/>
<path d="M104.128 22.3345H96.6895V29.7793H104.128V22.3345Z" fill="#ABE1F4"/>
<path d="M37.1872 37.2207H29.749V44.6655H37.1872V37.2207Z" fill="#ABE1F4"/>
<path d="M44.6257 37.2207H37.1875V44.6655H44.6257V37.2207Z" fill="#ABE1F4"/>
<path d="M89.2507 37.2207H81.8125V44.6655H89.2507V37.2207Z" fill="#ABE1F4"/>
<path d="M52.0632 37.2207H44.625V44.6655H52.0632V37.2207Z" fill="#ABE1F4"/>
<path d="M29.7526 37.2207H22.3145V44.6655H29.7526V37.2207Z" fill="#ABE1F4"/>
<path d="M81.8132 37.2207H74.375V44.6655H81.8132V37.2207Z" fill="#ABE1F4"/>
<path d="M74.3776 37.2207H66.9395V44.6655H74.3776V37.2207Z" fill="#ABE1F4"/>
<path d="M59.5016 37.2207H52.0635V44.6655H59.5016V37.2207Z" fill="#ABE1F4"/>
<path d="M66.9401 37.2207H59.502V44.6655H66.9401V37.2207Z" fill="#ABE1F4"/>
<path d="M14.8766 37.2207H7.43848V44.6655H14.8766V37.2207Z" fill="#ABE1F4"/>
<path d="M7.43816 37.2207H0V44.6655H7.43816V37.2207Z" fill="#ABE1F4"/>
<path d="M96.6891 29.7758H89.251V37.2207H96.6891V29.7758Z" fill="#ABE1F4"/>
<path d="M44.6257 29.7758H37.1875V37.2207H44.6257V29.7758Z" fill="#CFF0FF"/>
<path d="M52.0632 29.7758H44.625V37.2207H52.0632V29.7758Z" fill="#CFF0FF"/>
<path d="M59.5016 29.7758H52.0635V37.2207H59.5016V29.7758Z" fill="#CFF0FF"/>
<path d="M37.1872 29.7758H29.749V37.2207H37.1872V29.7758Z" fill="#ABE1F4"/>
<path d="M81.8132 29.7758H74.375V37.2207H81.8132V29.7758Z" fill="#CFF0FF"/>
<path d="M29.7526 29.7758H22.3145V37.2207H29.7526V29.7758Z" fill="#ABE1F4"/>
<path d="M89.2507 29.7758H81.8125V37.2207H89.2507V29.7758Z" fill="#ABE1F4"/>
<path d="M74.3776 29.7758H66.9395V37.2207H74.3776V29.7758Z" fill="#CFF0FF"/>
<path d="M66.9401 29.7758H59.502V37.2207H66.9401V29.7758Z" fill="#ABE1F4"/>
<path d="M14.8766 29.7758H7.43848V37.2207H14.8766V29.7758Z" fill="#ABE1F4"/>
<path d="M22.3141 29.7758H14.876V37.2207H22.3141V29.7758Z" fill="#ABE1F4"/>
<path d="M7.43816 29.7758H0V37.2207H7.43816V29.7758Z" fill="#ABE1F4"/>
<path d="M96.6891 22.3345H89.251V29.7793H96.6891V22.3345Z" fill="#ABE1F4"/>
<path d="M96.6891 0H89.251V7.44484H96.6891V0Z" fill="#CFF0FF"/>
<path d="M96.6891 14.8897H89.251V22.3345H96.6891V14.8897Z" fill="#CFF0FF"/>
<path d="M96.6891 7.44484H89.251V14.8897H96.6891V7.44484Z" fill="#CFF0FF"/>
<path d="M89.2507 52.1103H81.8125V59.5552H89.2507V52.1103Z" fill="#ABE1F4"/>
<path d="M81.8132 52.1103H74.375V59.5552H81.8132V52.1103Z" fill="#ABE1F4"/>
<path d="M74.3776 52.1103H66.9395V59.5552H74.3776V52.1103Z" fill="#ABE1F4"/>
<path d="M59.5016 52.1103H52.0635V59.5552H59.5016V52.1103Z" fill="#ABE1F4"/>
<path d="M66.9401 52.1103H59.502V59.5552H66.9401V52.1103Z" fill="#ABE1F4"/>
<path d="M52.0632 52.1103H44.625V59.5552H52.0632V52.1103Z" fill="#ABE1F4"/>
<path d="M111.565 52.1103H104.127V59.5552H111.565V52.1103Z" fill="#84D9EF"/>
<path d="M104.128 52.1103H96.6895V59.5552H104.128V52.1103Z" fill="#84D9EF"/>
<path d="M96.6891 52.1103H89.251V59.5552H96.6891V52.1103Z" fill="#84D9EF"/>
<path d="M119.004 44.6655H111.565V52.1103H119.004V44.6655Z" fill="#84D9EF"/>
<path d="M37.1872 52.1103H29.749V59.5552H37.1872V52.1103Z" fill="#84D9EF"/>
<path d="M44.6257 52.1103H37.1875V59.5552H44.6257V52.1103Z" fill="#ABE1F4"/>
<path d="M29.7526 52.1103H22.3145V59.5552H29.7526V52.1103Z" fill="#84D9EF"/>
<path d="M22.3141 52.1103H14.876V59.5552H22.3141V52.1103Z" fill="#84D9EF"/>
<path d="M119.004 22.3345H111.565V29.7793H119.004V22.3345Z" fill="#84D9EF"/>
<path d="M119.004 14.8897H111.565V22.3345H119.004V14.8897Z" fill="#84D9EF"/>
<path d="M119.004 29.7758H111.565V37.2207H119.004V29.7758Z" fill="#84D9EF"/>
<path d="M119.004 37.2207H111.565V44.6655H119.004V37.2207Z" fill="#84D9EF"/>
<path d="M14.8766 44.6655H7.43848V52.1103H14.8766V44.6655Z" fill="#ABE1F4"/>
<path d="M22.3141 44.6655H14.876V52.1103H22.3141V44.6655Z" fill="#ABE1F4"/>
<path d="M111.565 22.3345H104.127V29.7793H111.565V22.3345Z" fill="#CFF0FF"/>
<path d="M111.565 37.2207H104.127V44.6655H111.565V37.2207Z" fill="#84D9EF"/>
<path d="M111.565 29.7758H104.127V37.2207H111.565V29.7758Z" fill="#ABE1F4"/>
<path d="M111.565 44.6655H104.127V52.1103H111.565V44.6655Z" fill="#84D9EF"/>
<path d="M111.565 7.44484H104.127V14.8897H111.565V7.44484Z" fill="#CFF0FF"/>
<path d="M111.565 14.8897H104.127V22.3345H111.565V14.8897Z" fill="#CFF0FF"/>
<path d="M104.128 44.6655H96.6895V52.1103H104.128V44.6655Z" fill="#84D9EF"/>
<path d="M74.3776 44.6655H66.9395V52.1103H74.3776V44.6655Z" fill="#ABE1F4"/>
<path d="M96.6891 44.6655H89.251V52.1103H96.6891V44.6655Z" fill="#ABE1F4"/>
<path d="M59.5016 44.6655H52.0635V52.1103H59.5016V44.6655Z" fill="#ABE1F4"/>
<path d="M44.6257 44.6655H37.1875V52.1103H44.6257V44.6655Z" fill="#ABE1F4"/>
<path d="M37.1872 44.6655H29.749V52.1103H37.1872V44.6655Z" fill="#ABE1F4"/>
<path d="M52.0632 44.6655H44.625V52.1103H52.0632V44.6655Z" fill="#ABE1F4"/>
<path d="M81.8132 44.6655H74.375V52.1103H81.8132V44.6655Z" fill="#ABE1F4"/>
<path d="M89.2507 44.6655H81.8125V52.1103H89.2507V44.6655Z" fill="#ABE1F4"/>
<path d="M29.7526 44.6655H22.3145V52.1103H29.7526V44.6655Z" fill="#ABE1F4"/>
<path d="M66.9401 44.6655H59.502V52.1103H66.9401V44.6655Z" fill="#ABE1F4"/>
<path d="M96.6891 59.5552H89.251V67H96.6891V59.5552Z" fill="#84D9EF"/>
<path d="M104.128 59.5552H96.6895V67H104.128V59.5552Z" fill="#84D9EF"/>
<path d="M89.2507 59.5552H81.8125V67H89.2507V59.5552Z" fill="#84D9EF"/>
<path d="M81.8132 59.5552H74.375V67H81.8132V59.5552Z" fill="#ABE1F4"/>
<path d="M74.3776 59.5552H66.9395V67H74.3776V59.5552Z" fill="#ABE1F4"/>
</g>
<defs>
<clipPath id="clip0_28_35311">
<rect width="119" height="67" fill="white"/>
</clipPath>
</defs>
</svg>
