<svg width="292" height="124" viewBox="0 0 292 124" fill="none" xmlns="http://www.w3.org/2000/svg">
<g clip-path="url(#clip0_28_34227)">
<path d="M36.4988 14.5895H29.1982V21.8842H36.4988V14.5895Z" fill="#E9F9FF"/>
<path d="M36.4988 21.8842H29.1982V29.1789H36.4988V21.8842Z" fill="#E9F9FF"/>
<path d="M36.4988 29.1755H29.1982V36.4702H36.4988V29.1755Z" fill="#E9F9FF"/>
<path d="M43.7995 94.8246H36.499V102.119H43.7995V94.8246Z" fill="#ABE1F4"/>
<path d="M248.2 43.7649H240.899V51.0596H248.2V43.7649Z" fill="#CFF0FF"/>
<path d="M248.2 29.1755H240.899V36.4702H248.2V29.1755Z" fill="#CFF0FF"/>
<path d="M248.2 51.0596H240.899V58.3544H248.2V51.0596Z" fill="#CFF0FF"/>
<path d="M248.2 7.29473H240.899V14.5895H248.2V7.29473Z" fill="#E9F9FF"/>
<path d="M248.2 0H240.899V7.29473H248.2V0Z" fill="#E9F9FF"/>
<path d="M248.2 14.5895H240.899V21.8842H248.2V14.5895Z" fill="#E9F9FF"/>
<path d="M248.2 21.8842H240.899V29.1789H248.2V21.8842Z" fill="#CFF0FF"/>
<path d="M94.9001 72.9404H87.5996V80.2351H94.9001V72.9404Z" fill="#CFF0FF"/>
<path d="M255.501 14.5895H248.2V21.8842H255.501V14.5895Z" fill="#E9F9FF"/>
<path d="M255.501 21.8842H248.2V29.1789H255.501V21.8842Z" fill="#CFF0FF"/>
<path d="M255.501 29.1755H248.2V36.4702H255.501V29.1755Z" fill="#CFF0FF"/>
<path d="M255.501 7.29473H248.2V14.5895H255.501V7.29473Z" fill="#E9F9FF"/>
<path d="M36.4988 36.4702H29.1982V43.7649H36.4988V36.4702Z" fill="#E9F9FF"/>
<path d="M255.501 36.4702H248.2V43.7649H255.501V36.4702Z" fill="#CFF0FF"/>
<path d="M102.2 72.9404H94.8994V80.2351H102.2V72.9404Z" fill="#CFF0FF"/>
<path d="M248.2 58.3544H240.899V65.6491H248.2V58.3544Z" fill="#CFF0FF"/>
<path d="M87.5993 72.9404H80.2988V80.2351H87.5993V72.9404Z" fill="#CFF0FF"/>
<path d="M80.2986 72.9404H72.998V80.2351H80.2986V72.9404Z" fill="#CFF0FF"/>
<path d="M73.0017 72.9404H65.7012V80.2351H73.0017V72.9404Z" fill="#CFF0FF"/>
<path d="M109.501 72.9404H102.2V80.2351H109.501V72.9404Z" fill="#CFF0FF"/>
<path d="M138.7 72.9404H131.399V80.2351H138.7V72.9404Z" fill="#84D9EF"/>
<path d="M124.098 72.9404H116.798V80.2351H124.098V72.9404Z" fill="#ABE1F4"/>
<path d="M116.801 72.9404H109.501V80.2351H116.801V72.9404Z" fill="#ABE1F4"/>
<path d="M131.399 72.9404H124.099V80.2351H131.399V72.9404Z" fill="#84D9EF"/>
<path d="M36.4988 51.0596H29.1982V58.3544H36.4988V51.0596Z" fill="#E9F9FF"/>
<path d="M36.4988 58.3544H29.1982V65.6491H36.4988V58.3544Z" fill="#E9F9FF"/>
<path d="M36.4988 65.6491H29.1982V72.9438H36.4988V65.6491Z" fill="#E9F9FF"/>
<path d="M65.7009 72.9404H58.4004V80.2351H65.7009V72.9404Z" fill="#CFF0FF"/>
<path d="M36.4988 43.7649H29.1982V51.0596H36.4988V43.7649Z" fill="#E9F9FF"/>
<path d="M51.1003 72.9404H43.7998V80.2351H51.1003V72.9404Z" fill="#CFF0FF"/>
<path d="M36.4988 72.9404H29.1982V80.2351H36.4988V72.9404Z" fill="#CFF0FF"/>
<path d="M58.4011 72.9404H51.1006V80.2351H58.4011V72.9404Z" fill="#CFF0FF"/>
<path d="M43.7995 72.9404H36.499V80.2351H43.7995V72.9404Z" fill="#CFF0FF"/>
<path d="M218.998 72.9404H211.697V80.2351H218.998V72.9404Z" fill="#CFF0FF"/>
<path d="M233.599 72.9404H226.299V80.2351H233.599V72.9404Z" fill="#CFF0FF"/>
<path d="M240.9 72.9404H233.6V80.2351H240.9V72.9404Z" fill="#CFF0FF"/>
<path d="M255.501 43.7649H248.2V51.0596H255.501V43.7649Z" fill="#CFF0FF"/>
<path d="M248.2 72.9404H240.899V80.2351H248.2V72.9404Z" fill="#CFF0FF"/>
<path d="M226.299 72.9404H218.998V80.2351H226.299V72.9404Z" fill="#CFF0FF"/>
<path d="M255.501 72.9404H248.2V80.2351H255.501V72.9404Z" fill="#ABE1F4"/>
<path d="M255.501 51.0596H248.2V58.3544H255.501V51.0596Z" fill="#CFF0FF"/>
<path d="M255.501 58.3544H248.2V65.6491H255.501V58.3544Z" fill="#CFF0FF"/>
<path d="M255.501 65.6491H248.2V72.9438H255.501V65.6491Z" fill="#CFF0FF"/>
<path d="M153.301 72.9404H146V80.2351H153.301V72.9404Z" fill="#CFF0FF"/>
<path d="M211.701 72.9404H204.4V80.2351H211.701V72.9404Z" fill="#CFF0FF"/>
<path d="M175.199 72.9404H167.898V80.2351H175.199V72.9404Z" fill="#CFF0FF"/>
<path d="M160.601 72.9404H153.301V80.2351H160.601V72.9404Z" fill="#CFF0FF"/>
<path d="M146 72.9404H138.699V80.2351H146V72.9404Z" fill="#84D9EF"/>
<path d="M167.898 72.9404H160.598V80.2351H167.898V72.9404Z" fill="#CFF0FF"/>
<path d="M197.1 72.9404H189.8V80.2351H197.1V72.9404Z" fill="#CFF0FF"/>
<path d="M204.401 72.9404H197.101V80.2351H204.401V72.9404Z" fill="#ABE1F4"/>
<path d="M189.8 72.9404H182.499V80.2351H189.8V72.9404Z" fill="#CFF0FF"/>
<path d="M182.499 72.9404H175.198V80.2351H182.499V72.9404Z" fill="#CFF0FF"/>
<path d="M43.7995 7.29473H36.499V14.5895H43.7995V7.29473Z" fill="#E9F9FF"/>
<path d="M240.9 43.7649H233.6V51.0596H240.9V43.7649Z" fill="#CFF0FF"/>
<path d="M240.9 36.4702H233.6V43.7649H240.9V36.4702Z" fill="#CFF0FF"/>
<path d="M240.9 58.3544H233.6V65.6491H240.9V58.3544Z" fill="#CFF0FF"/>
<path d="M240.9 51.0596H233.6V58.3544H240.9V51.0596Z" fill="#ABE1F4"/>
<path d="M240.9 29.1755H233.6V36.4702H240.9V29.1755Z" fill="#CFF0FF"/>
<path d="M233.599 58.3544H226.299V65.6491H233.599V58.3544Z" fill="#CFF0FF"/>
<path d="M240.9 21.8842H233.6V29.1789H240.9V21.8842Z" fill="#CFF0FF"/>
<path d="M240.9 7.29473H233.6V14.5895H240.9V7.29473Z" fill="#E9F9FF"/>
<path d="M240.9 14.5895H233.6V21.8842H240.9V14.5895Z" fill="#E9F9FF"/>
<path d="M240.9 0H233.6V7.29473H240.9V0Z" fill="#E9F9FF"/>
<path d="M226.299 58.3544H218.998V65.6491H226.299V58.3544Z" fill="#CFF0FF"/>
<path d="M182.499 58.3544H175.198V65.6491H182.499V58.3544Z" fill="#CFF0FF"/>
<path d="M189.8 58.3544H182.499V65.6491H189.8V58.3544Z" fill="#CFF0FF"/>
<path d="M167.898 58.3544H160.598V65.6491H167.898V58.3544Z" fill="#CFF0FF"/>
<path d="M175.199 58.3544H167.898V65.6491H175.199V58.3544Z" fill="#CFF0FF"/>
<path d="M211.701 58.3544H204.4V65.6491H211.701V58.3544Z" fill="#CFF0FF"/>
<path d="M218.998 58.3544H211.697V65.6491H218.998V58.3544Z" fill="#CFF0FF"/>
<path d="M204.401 58.3544H197.101V65.6491H204.401V58.3544Z" fill="#CFF0FF"/>
<path d="M197.1 58.3544H189.8V65.6491H197.1V58.3544Z" fill="#CFF0FF"/>
<path d="M160.601 58.3544H153.301V65.6491H160.601V58.3544Z" fill="#CFF0FF"/>
<path d="M58.4011 58.3544H51.1006V65.6491H58.4011V58.3544Z" fill="#CFF0FF"/>
<path d="M51.1003 7.29473H43.7998V14.5895H51.1003V7.29473Z" fill="#E9F9FF"/>
<path d="M51.1003 0H43.7998V7.29473H51.1003V0Z" fill="#E9F9FF"/>
<path d="M153.301 58.3544H146V65.6491H153.301V58.3544Z" fill="#CFF0FF"/>
<path d="M51.1003 14.5895H43.7998V21.8842H51.1003V14.5895Z" fill="#E9F9FF"/>
<path d="M102.2 58.3544H94.8994V65.6491H102.2V58.3544Z" fill="#CFF0FF"/>
<path d="M87.5993 58.3544H80.2988V65.6491H87.5993V58.3544Z" fill="#CFF0FF"/>
<path d="M116.801 58.3544H109.501V65.6491H116.801V58.3544Z" fill="#CFF0FF"/>
<path d="M94.9001 58.3544H87.5996V65.6491H94.9001V58.3544Z" fill="#CFF0FF"/>
<path d="M109.501 58.3544H102.2V65.6491H109.501V58.3544Z" fill="#CFF0FF"/>
<path d="M51.1003 21.8842H43.7998V29.1789H51.1003V21.8842Z" fill="#E9F9FF"/>
<path d="M138.7 58.3544H131.399V65.6491H138.7V58.3544Z" fill="#CFF0FF"/>
<path d="M131.399 58.3544H124.099V65.6491H131.399V58.3544Z" fill="#CFF0FF"/>
<path d="M124.098 58.3544H116.798V65.6491H124.098V58.3544Z" fill="#CFF0FF"/>
<path d="M146 58.3544H138.699V65.6491H146V58.3544Z" fill="#CFF0FF"/>
<path d="M51.1003 43.7649H43.7998V51.0596H51.1003V43.7649Z" fill="#CFF0FF"/>
<path d="M51.1003 51.0596H43.7998V58.3544H51.1003V51.0596Z" fill="#CFF0FF"/>
<path d="M51.1003 36.4702H43.7998V43.7649H51.1003V36.4702Z" fill="#CFF0FF"/>
<path d="M51.1003 29.1755H43.7998V36.4702H51.1003V29.1755Z" fill="#CFF0FF"/>
<path d="M65.7009 58.3544H58.4004V65.6491H65.7009V58.3544Z" fill="#CFF0FF"/>
<path d="M51.1003 58.3544H43.7998V65.6491H51.1003V58.3544Z" fill="#CFF0FF"/>
<path d="M73.0017 58.3544H65.7012V65.6491H73.0017V58.3544Z" fill="#CFF0FF"/>
<path d="M80.2986 58.3544H72.998V65.6491H80.2986V58.3544Z" fill="#CFF0FF"/>
<path d="M43.7995 14.5895H36.499V21.8842H43.7995V14.5895Z" fill="#E9F9FF"/>
<path d="M102.2 65.6491H94.8994V72.9438H102.2V65.6491Z" fill="#CFF0FF"/>
<path d="M65.7009 65.6491H58.4004V72.9438H65.7009V65.6491Z" fill="#CFF0FF"/>
<path d="M58.4011 65.6491H51.1006V72.9438H58.4011V65.6491Z" fill="#CFF0FF"/>
<path d="M43.7995 58.3544H36.499V65.6491H43.7995V58.3544Z" fill="#CFF0FF"/>
<path d="M73.0017 65.6491H65.7012V72.9438H73.0017V65.6491Z" fill="#CFF0FF"/>
<path d="M94.9001 65.6491H87.5996V72.9438H94.9001V65.6491Z" fill="#CFF0FF"/>
<path d="M87.5993 65.6491H80.2988V72.9438H87.5993V65.6491Z" fill="#CFF0FF"/>
<path d="M43.7995 51.0596H36.499V58.3544H43.7995V51.0596Z" fill="#CFF0FF"/>
<path d="M80.2986 65.6491H72.998V72.9438H80.2986V65.6491Z" fill="#CFF0FF"/>
<path d="M51.1003 65.6491H43.7998V72.9438H51.1003V65.6491Z" fill="#ABE1F4"/>
<path d="M43.7995 43.7649H36.499V51.0596H43.7995V43.7649Z" fill="#E9F9FF"/>
<path d="M43.7995 29.1755H36.499V36.4702H43.7995V29.1755Z" fill="#E9F9FF"/>
<path d="M43.7995 36.4702H36.499V43.7649H43.7995V36.4702Z" fill="#E9F9FF"/>
<path d="M248.2 65.6491H240.899V72.9438H248.2V65.6491Z" fill="#CFF0FF"/>
<path d="M43.7995 21.8842H36.499V29.1789H43.7995V21.8842Z" fill="#E9F9FF"/>
<path d="M43.7995 65.6491H36.499V72.9438H43.7995V65.6491Z" fill="#CFF0FF"/>
<path d="M182.499 65.6491H175.198V72.9438H182.499V65.6491Z" fill="#CFF0FF"/>
<path d="M197.1 65.6491H189.8V72.9438H197.1V65.6491Z" fill="#CFF0FF"/>
<path d="M211.701 65.6491H204.4V72.9438H211.701V65.6491Z" fill="#CFF0FF"/>
<path d="M189.8 65.6491H182.499V72.9438H189.8V65.6491Z" fill="#CFF0FF"/>
<path d="M204.401 65.6491H197.101V72.9438H204.401V65.6491Z" fill="#CFF0FF"/>
<path d="M240.9 65.6491H233.6V72.9438H240.9V65.6491Z" fill="#CFF0FF"/>
<path d="M233.599 65.6491H226.299V72.9438H233.599V65.6491Z" fill="#CFF0FF"/>
<path d="M226.299 65.6491H218.998V72.9438H226.299V65.6491Z" fill="#CFF0FF"/>
<path d="M218.998 65.6491H211.697V72.9438H218.998V65.6491Z" fill="#CFF0FF"/>
<path d="M138.7 65.6491H131.399V72.9438H138.7V65.6491Z" fill="#84D9EF"/>
<path d="M124.098 65.6491H116.798V72.9438H124.098V65.6491Z" fill="#ABE1F4"/>
<path d="M116.801 65.6491H109.501V72.9438H116.801V65.6491Z" fill="#ABE1F4"/>
<path d="M109.501 65.6491H102.2V72.9438H109.501V65.6491Z" fill="#CFF0FF"/>
<path d="M153.301 65.6491H146V72.9438H153.301V65.6491Z" fill="#CFF0FF"/>
<path d="M160.601 65.6491H153.301V72.9438H160.601V65.6491Z" fill="#CFF0FF"/>
<path d="M167.898 65.6491H160.598V72.9438H167.898V65.6491Z" fill="#E9F9FF"/>
<path d="M175.199 65.6491H167.898V72.9438H175.199V65.6491Z" fill="#E9F9FF"/>
<path d="M146 65.6491H138.699V72.9438H146V65.6491Z" fill="#CFF0FF"/>
<path d="M131.399 65.6491H124.099V72.9438H131.399V65.6491Z" fill="#84D9EF"/>
<path d="M262.798 87.5298H255.497V94.8246H262.798V87.5298Z" fill="#ABE1F4"/>
<path d="M270.098 21.8842H262.798V29.1789H270.098V21.8842Z" fill="#CFF0FF"/>
<path d="M270.098 87.5298H262.798V94.8246H270.098V87.5298Z" fill="#ABE1F4"/>
<path d="M270.098 58.3544H262.798V65.6491H270.098V58.3544Z" fill="#84D9EF"/>
<path d="M270.098 80.2351H262.798V87.5298H270.098V80.2351Z" fill="#ABE1F4"/>
<path d="M270.098 65.6491H262.798V72.9438H270.098V65.6491Z" fill="#84D9EF"/>
<path d="M270.098 51.0596H262.798V58.3544H270.098V51.0596Z" fill="#CFF0FF"/>
<path d="M189.8 87.5298H182.499V94.8246H189.8V87.5298Z" fill="#ABE1F4"/>
<path d="M270.098 29.1755H262.798V36.4702H270.098V29.1755Z" fill="#CFF0FF"/>
<path d="M270.098 43.7649H262.798V51.0596H270.098V43.7649Z" fill="#CFF0FF"/>
<path d="M270.098 72.9404H262.798V80.2351H270.098V72.9404Z" fill="#84D9EF"/>
<path d="M204.401 87.5298H197.101V94.8246H204.401V87.5298Z" fill="#CFF0FF"/>
<path d="M211.701 87.5298H204.4V94.8246H211.701V87.5298Z" fill="#CFF0FF"/>
<path d="M255.501 87.5298H248.2V94.8246H255.501V87.5298Z" fill="#ABE1F4"/>
<path d="M218.998 87.5298H211.697V94.8246H218.998V87.5298Z" fill="#CFF0FF"/>
<path d="M197.1 87.5298H189.8V94.8246H197.1V87.5298Z" fill="#ABE1F4"/>
<path d="M248.2 87.5298H240.899V94.8246H248.2V87.5298Z" fill="#ABE1F4"/>
<path d="M240.9 87.5298H233.6V94.8246H240.9V87.5298Z" fill="#ABE1F4"/>
<path d="M226.299 87.5298H218.998V94.8246H226.299V87.5298Z" fill="#ABE1F4"/>
<path d="M233.599 87.5298H226.299V94.8246H233.599V87.5298Z" fill="#ABE1F4"/>
<path d="M270.098 36.4702H262.798V43.7649H270.098V36.4702Z" fill="#CFF0FF"/>
<path d="M58.4011 87.5298H51.1006V94.8246H58.4011V87.5298Z" fill="#ABE1F4"/>
<path d="M182.499 87.5298H175.198V94.8246H182.499V87.5298Z" fill="#ABE1F4"/>
<path d="M21.9011 65.6491H14.6006V72.9438H21.9011V65.6491Z" fill="#E9F9FF"/>
<path d="M21.9011 72.9404H14.6006V80.2351H21.9011V72.9404Z" fill="#ABE1F4"/>
<path d="M21.9011 87.5298H14.6006V94.8246H21.9011V87.5298Z" fill="#ABE1F4"/>
<path d="M29.2019 87.5298H21.9014V94.8246H29.2019V87.5298Z" fill="#ABE1F4"/>
<path d="M21.9011 80.2351H14.6006V87.5298H21.9011V80.2351Z" fill="#ABE1F4"/>
<path d="M36.4988 87.5298H29.1982V94.8246H36.4988V87.5298Z" fill="#ABE1F4"/>
<path d="M116.801 87.5298H109.501V94.8246H116.801V87.5298Z" fill="#ABE1F4"/>
<path d="M131.399 87.5298H124.099V94.8246H131.399V87.5298Z" fill="#ABE1F4"/>
<path d="M146 87.5298H138.699V94.8246H146V87.5298Z" fill="#84D9EF"/>
<path d="M124.098 87.5298H116.798V94.8246H124.098V87.5298Z" fill="#ABE1F4"/>
<path d="M138.7 87.5298H131.399V94.8246H138.7V87.5298Z" fill="#84D9EF"/>
<path d="M167.898 87.5298H160.598V94.8246H167.898V87.5298Z" fill="#CFF0FF"/>
<path d="M43.7995 87.5298H36.499V94.8246H43.7995V87.5298Z" fill="#ABE1F4"/>
<path d="M160.601 87.5298H153.301V94.8246H160.601V87.5298Z" fill="#84D9EF"/>
<path d="M153.301 87.5298H146V94.8246H153.301V87.5298Z" fill="#84D9EF"/>
<path d="M175.199 87.5298H167.898V94.8246H175.199V87.5298Z" fill="#ABE1F4"/>
<path d="M73.0017 87.5298H65.7012V94.8246H73.0017V87.5298Z" fill="#ABE1F4"/>
<path d="M65.7009 87.5298H58.4004V94.8246H65.7009V87.5298Z" fill="#ABE1F4"/>
<path d="M109.501 87.5298H102.2V94.8246H109.501V87.5298Z" fill="#CFF0FF"/>
<path d="M51.1003 87.5298H43.7998V94.8246H51.1003V87.5298Z" fill="#ABE1F4"/>
<path d="M94.9001 87.5298H87.5996V94.8246H94.9001V87.5298Z" fill="#CFF0FF"/>
<path d="M102.2 87.5298H94.8994V94.8246H102.2V87.5298Z" fill="#CFF0FF"/>
<path d="M80.2986 87.5298H72.998V94.8246H80.2986V87.5298Z" fill="#ABE1F4"/>
<path d="M87.5993 87.5298H80.2988V94.8246H87.5993V87.5298Z" fill="#CFF0FF"/>
<path d="M14.6013 94.8246H7.30078V102.119H14.6013V94.8246Z" fill="#84D9EF"/>
<path d="M21.9011 94.8246H14.6006V102.119H21.9011V94.8246Z" fill="#84D9EF"/>
<path d="M14.6013 80.2351H7.30078V87.5298H14.6013V80.2351Z" fill="#ABE1F4"/>
<path d="M14.6013 72.9404H7.30078V80.2351H14.6013V72.9404Z" fill="#ABE1F4"/>
<path d="M14.6013 65.6491H7.30078V72.9438H14.6013V65.6491Z" fill="#E9F9FF"/>
<path d="M14.6013 87.5298H7.30078V94.8246H14.6013V87.5298Z" fill="#ABE1F4"/>
<path d="M36.4988 94.8246H29.1982V102.119H36.4988V94.8246Z" fill="#ABE1F4"/>
<path d="M29.2019 94.8246H21.9014V102.119H29.2019V94.8246Z" fill="#ABE1F4"/>
<path d="M73.0017 80.2351H65.7012V87.5298H73.0017V80.2351Z" fill="#CFF0FF"/>
<path d="M43.7995 80.2351H36.499V87.5298H43.7995V80.2351Z" fill="#CFF0FF"/>
<path d="M262.798 80.2351H255.497V87.5298H262.798V80.2351Z" fill="#ABE1F4"/>
<path d="M58.4011 80.2351H51.1006V87.5298H58.4011V80.2351Z" fill="#ABE1F4"/>
<path d="M80.2986 80.2351H72.998V87.5298H80.2986V80.2351Z" fill="#ABE1F4"/>
<path d="M65.7009 80.2351H58.4004V87.5298H65.7009V80.2351Z" fill="#CFF0FF"/>
<path d="M102.2 80.2351H94.8994V87.5298H102.2V80.2351Z" fill="#CFF0FF"/>
<path d="M109.501 80.2351H102.2V87.5298H109.501V80.2351Z" fill="#CFF0FF"/>
<path d="M94.9001 80.2351H87.5996V87.5298H94.9001V80.2351Z" fill="#CFF0FF"/>
<path d="M87.5993 80.2351H80.2988V87.5298H87.5993V80.2351Z" fill="#CFF0FF"/>
<path d="M29.2019 51.0596H21.9014V58.3544H29.2019V51.0596Z" fill="#E9F9FF"/>
<path d="M29.2019 36.4702H21.9014V43.7649H29.2019V36.4702Z" fill="#E9F9FF"/>
<path d="M29.2019 43.7649H21.9014V51.0596H29.2019V43.7649Z" fill="#E9F9FF"/>
<path d="M29.2019 80.2351H21.9014V87.5298H29.2019V80.2351Z" fill="#ABE1F4"/>
<path d="M36.4988 80.2351H29.1982V87.5298H36.4988V80.2351Z" fill="#ABE1F4"/>
<path d="M29.2019 72.9404H21.9014V80.2351H29.2019V72.9404Z" fill="#CFF0FF"/>
<path d="M29.2019 65.6491H21.9014V72.9438H29.2019V65.6491Z" fill="#E9F9FF"/>
<path d="M51.1003 80.2351H43.7998V87.5298H51.1003V80.2351Z" fill="#ABE1F4"/>
<path d="M211.701 80.2351H204.4V87.5298H211.701V80.2351Z" fill="#CFF0FF"/>
<path d="M218.998 80.2351H211.697V87.5298H218.998V80.2351Z" fill="#CFF0FF"/>
<path d="M226.299 80.2351H218.998V87.5298H226.299V80.2351Z" fill="#CFF0FF"/>
<path d="M204.401 80.2351H197.101V87.5298H204.401V80.2351Z" fill="#CFF0FF"/>
<path d="M248.2 80.2351H240.899V87.5298H248.2V80.2351Z" fill="#ABE1F4"/>
<path d="M197.1 80.2351H189.8V87.5298H197.1V80.2351Z" fill="#CFF0FF"/>
<path d="M255.501 80.2351H248.2V87.5298H255.501V80.2351Z" fill="#ABE1F4"/>
<path d="M240.9 80.2351H233.6V87.5298H240.9V80.2351Z" fill="#CFF0FF"/>
<path d="M233.599 80.2351H226.299V87.5298H233.599V80.2351Z" fill="#CFF0FF"/>
<path d="M182.499 80.2351H175.198V87.5298H182.499V80.2351Z" fill="#CFF0FF"/>
<path d="M146 80.2351H138.699V87.5298H146V80.2351Z" fill="#84D9EF"/>
<path d="M189.8 80.2351H182.499V87.5298H189.8V80.2351Z" fill="#CFF0FF"/>
<path d="M138.7 80.2351H131.399V87.5298H138.7V80.2351Z" fill="#84D9EF"/>
<path d="M131.399 80.2351H124.099V87.5298H131.399V80.2351Z" fill="#84D9EF"/>
<path d="M153.301 80.2351H146V87.5298H153.301V80.2351Z" fill="#84D9EF"/>
<path d="M124.098 80.2351H116.798V87.5298H124.098V80.2351Z" fill="#ABE1F4"/>
<path d="M175.199 80.2351H167.898V87.5298H175.199V80.2351Z" fill="#CFF0FF"/>
<path d="M160.601 80.2351H153.301V87.5298H160.601V80.2351Z" fill="#CFF0FF"/>
<path d="M167.898 80.2351H160.598V87.5298H167.898V80.2351Z" fill="#CFF0FF"/>
<path d="M116.801 80.2351H109.501V87.5298H116.801V80.2351Z" fill="#ABE1F4"/>
<path d="M262.798 72.9404H255.497V80.2351H262.798V72.9404Z" fill="#ABE1F4"/>
<path d="M262.798 21.8842H255.497V29.1789H262.798V21.8842Z" fill="#CFF0FF"/>
<path d="M262.798 43.7649H255.497V51.0596H262.798V43.7649Z" fill="#CFF0FF"/>
<path d="M262.798 51.0596H255.497V58.3544H262.798V51.0596Z" fill="#CFF0FF"/>
<path d="M262.798 65.6491H255.497V72.9438H262.798V65.6491Z" fill="#CFF0FF"/>
<path d="M262.798 58.3544H255.497V65.6491H262.798V58.3544Z" fill="#CFF0FF"/>
<path d="M262.798 14.5895H255.497V21.8842H262.798V14.5895Z" fill="#E9F9FF"/>
<path d="M262.798 29.1755H255.497V36.4702H262.798V29.1755Z" fill="#CFF0FF"/>
<path d="M262.798 36.4702H255.497V43.7649H262.798V36.4702Z" fill="#CFF0FF"/>
<path d="M248.2 36.4702H240.899V43.7649H248.2V36.4702Z" fill="#CFF0FF"/>
<path d="M138.7 14.5895H131.399V21.8842H138.7V14.5895Z" fill="#E9F9FF"/>
<path d="M189.8 14.5895H182.499V21.8842H189.8V14.5895Z" fill="#E9F9FF"/>
<path d="M197.1 7.29473H189.8V14.5895H197.1V7.29473Z" fill="#E9F9FF"/>
<path d="M197.1 14.5895H189.8V21.8842H197.1V14.5895Z" fill="#E9F9FF"/>
<path d="M182.499 14.5895H175.198V21.8842H182.499V14.5895Z" fill="#E9F9FF"/>
<path d="M131.399 14.5895H124.099V21.8842H131.399V14.5895Z" fill="#E9F9FF"/>
<path d="M80.2986 29.1755H72.998V36.4702H80.2986V29.1755Z" fill="#CFF0FF"/>
<path d="M94.9001 7.29473H87.5996V14.5895H94.9001V7.29473Z" fill="#E9F9FF"/>
<path d="M94.9001 14.5895H87.5996V21.8842H94.9001V14.5895Z" fill="#CFF0FF"/>
<path d="M109.501 14.5895H102.2V21.8842H109.501V14.5895Z" fill="#CFF0FF"/>
<path d="M102.2 14.5895H94.8994V21.8842H102.2V14.5895Z" fill="#CFF0FF"/>
<path d="M116.801 14.5895H109.501V21.8842H116.801V14.5895Z" fill="#CFF0FF"/>
<path d="M124.098 14.5895H116.798V21.8842H124.098V14.5895Z" fill="#E9F9FF"/>
<path d="M80.2986 21.8842H72.998V29.1789H80.2986V21.8842Z" fill="#CFF0FF"/>
<path d="M80.2986 14.5895H72.998V21.8842H80.2986V14.5895Z" fill="#CFF0FF"/>
<path d="M80.2986 7.29473H72.998V14.5895H80.2986V7.29473Z" fill="#E9F9FF"/>
<path d="M80.2986 0H72.998V7.29473H80.2986V0Z" fill="#E9F9FF"/>
<path d="M87.5993 21.8842H80.2988V29.1789H87.5993V21.8842Z" fill="#CFF0FF"/>
<path d="M94.9001 21.8842H87.5996V29.1789H94.9001V21.8842Z" fill="#E9F9FF"/>
<path d="M87.5993 14.5895H80.2988V21.8842H87.5993V14.5895Z" fill="#CFF0FF"/>
<path d="M87.5993 7.29473H80.2988V14.5895H87.5993V7.29473Z" fill="#E9F9FF"/>
<path d="M109.501 21.8842H102.2V29.1789H109.501V21.8842Z" fill="#CFF0FF"/>
<path d="M124.098 21.8842H116.798V29.1789H124.098V21.8842Z" fill="#CFF0FF"/>
<path d="M102.2 21.8842H94.8994V29.1789H102.2V21.8842Z" fill="#E9F9FF"/>
<path d="M116.801 21.8842H109.501V29.1789H116.801V21.8842Z" fill="#CFF0FF"/>
<path d="M131.399 21.8842H124.099V29.1789H131.399V21.8842Z" fill="#E9F9FF"/>
<path d="M204.401 7.29473H197.101V14.5895H204.401V7.29473Z" fill="#E9F9FF"/>
<path d="M138.7 21.8842H131.399V29.1789H138.7V21.8842Z" fill="#E9F9FF"/>
<path d="M204.401 14.5895H197.101V21.8842H204.401V14.5895Z" fill="#E9F9FF"/>
<path d="M146 21.8842H138.699V29.1789H146V21.8842Z" fill="#E9F9FF"/>
<path d="M189.8 21.8842H182.499V29.1789H189.8V21.8842Z" fill="#E9F9FF"/>
<path d="M204.401 21.8842H197.101V29.1789H204.401V21.8842Z" fill="#CFF0FF"/>
<path d="M197.1 21.8842H189.8V29.1789H197.1V21.8842Z" fill="#CFF0FF"/>
<path d="M182.499 21.8842H175.198V29.1789H182.499V21.8842Z" fill="#E9F9FF"/>
<path d="M175.199 21.8842H167.898V29.1789H175.199V21.8842Z" fill="#E9F9FF"/>
<path d="M102.2 7.29473H94.8994V14.5895H102.2V7.29473Z" fill="#E9F9FF"/>
<path d="M109.501 7.29473H102.2V14.5895H109.501V7.29473Z" fill="#E9F9FF"/>
<path d="M124.098 7.29473H116.798V14.5895H124.098V7.29473Z" fill="#E9F9FF"/>
<path d="M116.801 7.29473H109.501V14.5895H116.801V7.29473Z" fill="#E9F9FF"/>
<path d="M160.601 43.7649H153.301V51.0596H160.601V43.7649Z" fill="#CFF0FF"/>
<path d="M197.1 43.7649H189.8V51.0596H197.1V43.7649Z" fill="#CFF0FF"/>
<path d="M189.8 43.7649H182.499V51.0596H189.8V43.7649Z" fill="#CFF0FF"/>
<path d="M226.299 36.4702H218.998V43.7649H226.299V36.4702Z" fill="#CFF0FF"/>
<path d="M167.898 43.7649H160.598V51.0596H167.898V43.7649Z" fill="#CFF0FF"/>
<path d="M182.499 43.7649H175.198V51.0596H182.499V43.7649Z" fill="#CFF0FF"/>
<path d="M226.299 43.7649H218.998V51.0596H226.299V43.7649Z" fill="#CFF0FF"/>
<path d="M218.998 43.7649H211.697V51.0596H218.998V43.7649Z" fill="#CFF0FF"/>
<path d="M211.701 43.7649H204.4V51.0596H211.701V43.7649Z" fill="#CFF0FF"/>
<path d="M204.401 43.7649H197.101V51.0596H204.401V43.7649Z" fill="#CFF0FF"/>
<path d="M175.199 43.7649H167.898V51.0596H175.199V43.7649Z" fill="#CFF0FF"/>
<path d="M109.501 43.7649H102.2V51.0596H109.501V43.7649Z" fill="#CFF0FF"/>
<path d="M102.2 43.7649H94.8994V51.0596H102.2V43.7649Z" fill="#CFF0FF"/>
<path d="M94.9001 43.7649H87.5996V51.0596H94.9001V43.7649Z" fill="#CFF0FF"/>
<path d="M116.801 43.7649H109.501V51.0596H116.801V43.7649Z" fill="#CFF0FF"/>
<path d="M153.301 43.7649H146V51.0596H153.301V43.7649Z" fill="#CFF0FF"/>
<path d="M138.7 43.7649H131.399V51.0596H138.7V43.7649Z" fill="#CFF0FF"/>
<path d="M146 43.7649H138.699V51.0596H146V43.7649Z" fill="#CFF0FF"/>
<path d="M131.399 43.7649H124.099V51.0596H131.399V43.7649Z" fill="#CFF0FF"/>
<path d="M124.098 43.7649H116.798V51.0596H124.098V43.7649Z" fill="#CFF0FF"/>
<path d="M226.299 0H218.998V7.29473H226.299V0Z" fill="#E9F9FF"/>
<path d="M226.299 7.29473H218.998V14.5895H226.299V7.29473Z" fill="#E9F9FF"/>
<path d="M226.299 14.5895H218.998V21.8842H226.299V14.5895Z" fill="#E9F9FF"/>
<path d="M226.299 21.8842H218.998V29.1789H226.299V21.8842Z" fill="#CFF0FF"/>
<path d="M226.299 29.1755H218.998V36.4702H226.299V29.1755Z" fill="#CFF0FF"/>
<path d="M58.4011 0H51.1006V7.29473H58.4011V0Z" fill="#E9F9FF"/>
<path d="M87.5993 43.7649H80.2988V51.0596H87.5993V43.7649Z" fill="#CFF0FF"/>
<path d="M94.9001 51.0596H87.5996V58.3544H94.9001V51.0596Z" fill="#CFF0FF"/>
<path d="M109.501 51.0596H102.2V58.3544H109.501V51.0596Z" fill="#CFF0FF"/>
<path d="M102.2 51.0596H94.8994V58.3544H102.2V51.0596Z" fill="#CFF0FF"/>
<path d="M87.5993 51.0596H80.2988V58.3544H87.5993V51.0596Z" fill="#CFF0FF"/>
<path d="M116.801 51.0596H109.501V58.3544H116.801V51.0596Z" fill="#CFF0FF"/>
<path d="M131.399 51.0596H124.099V58.3544H131.399V51.0596Z" fill="#CFF0FF"/>
<path d="M80.2986 51.0596H72.998V58.3544H80.2986V51.0596Z" fill="#CFF0FF"/>
<path d="M138.7 51.0596H131.399V58.3544H138.7V51.0596Z" fill="#CFF0FF"/>
<path d="M124.098 51.0596H116.798V58.3544H124.098V51.0596Z" fill="#CFF0FF"/>
<path d="M58.4011 43.7649H51.1006V51.0596H58.4011V43.7649Z" fill="#CFF0FF"/>
<path d="M58.4011 14.5895H51.1006V21.8842H58.4011V14.5895Z" fill="#E9F9FF"/>
<path d="M58.4011 21.8842H51.1006V29.1789H58.4011V21.8842Z" fill="#CFF0FF"/>
<path d="M58.4011 7.29473H51.1006V14.5895H58.4011V7.29473Z" fill="#E9F9FF"/>
<path d="M58.4011 29.1755H51.1006V36.4702H58.4011V29.1755Z" fill="#CFF0FF"/>
<path d="M146 51.0596H138.699V58.3544H146V51.0596Z" fill="#CFF0FF"/>
<path d="M65.7009 51.0596H58.4004V58.3544H65.7009V51.0596Z" fill="#CFF0FF"/>
<path d="M58.4011 36.4702H51.1006V43.7649H58.4011V36.4702Z" fill="#CFF0FF"/>
<path d="M58.4011 51.0596H51.1006V58.3544H58.4011V51.0596Z" fill="#CFF0FF"/>
<path d="M73.0017 51.0596H65.7012V58.3544H73.0017V51.0596Z" fill="#CFF0FF"/>
<path d="M233.599 29.1755H226.299V36.4702H233.599V29.1755Z" fill="#CFF0FF"/>
<path d="M233.599 43.7649H226.299V51.0596H233.599V43.7649Z" fill="#CFF0FF"/>
<path d="M233.599 36.4702H226.299V43.7649H233.599V36.4702Z" fill="#CFF0FF"/>
<path d="M233.599 51.0596H226.299V58.3544H233.599V51.0596Z" fill="#CFF0FF"/>
<path d="M233.599 21.8842H226.299V29.1789H233.599V21.8842Z" fill="#CFF0FF"/>
<path d="M233.599 7.29473H226.299V14.5895H233.599V7.29473Z" fill="#E9F9FF"/>
<path d="M233.599 0H226.299V7.29473H233.599V0Z" fill="#E9F9FF"/>
<path d="M233.599 14.5895H226.299V21.8842H233.599V14.5895Z" fill="#E9F9FF"/>
<path d="M226.299 51.0596H218.998V58.3544H226.299V51.0596Z" fill="#CFF0FF"/>
<path d="M211.701 51.0596H204.4V58.3544H211.701V51.0596Z" fill="#CFF0FF"/>
<path d="M167.898 51.0596H160.598V58.3544H167.898V51.0596Z" fill="#CFF0FF"/>
<path d="M175.199 51.0596H167.898V58.3544H175.199V51.0596Z" fill="#CFF0FF"/>
<path d="M218.998 51.0596H211.697V58.3544H218.998V51.0596Z" fill="#CFF0FF"/>
<path d="M182.499 51.0596H175.198V58.3544H182.499V51.0596Z" fill="#E9F9FF"/>
<path d="M160.601 51.0596H153.301V58.3544H160.601V51.0596Z" fill="#CFF0FF"/>
<path d="M153.301 51.0596H146V58.3544H153.301V51.0596Z" fill="#CFF0FF"/>
<path d="M204.401 51.0596H197.101V58.3544H204.401V51.0596Z" fill="#CFF0FF"/>
<path d="M197.1 51.0596H189.8V58.3544H197.1V51.0596Z" fill="#CFF0FF"/>
<path d="M189.8 51.0596H182.499V58.3544H189.8V51.0596Z" fill="#CFF0FF"/>
<path d="M109.501 29.1755H102.2V36.4702H109.501V29.1755Z" fill="#E9F9FF"/>
<path d="M73.0017 21.8842H65.7012V29.1789H73.0017V21.8842Z" fill="#CFF0FF"/>
<path d="M73.0017 29.1755H65.7012V36.4702H73.0017V29.1755Z" fill="#CFF0FF"/>
<path d="M73.0017 36.4702H65.7012V43.7649H73.0017V36.4702Z" fill="#CFF0FF"/>
<path d="M73.0017 14.5895H65.7012V21.8842H73.0017V14.5895Z" fill="#CFF0FF"/>
<path d="M87.5993 36.4702H80.2988V43.7649H87.5993V36.4702Z" fill="#CFF0FF"/>
<path d="M102.2 36.4702H94.8994V43.7649H102.2V36.4702Z" fill="#CFF0FF"/>
<path d="M94.9001 36.4702H87.5996V43.7649H94.9001V36.4702Z" fill="#CFF0FF"/>
<path d="M80.2986 36.4702H72.998V43.7649H80.2986V36.4702Z" fill="#CFF0FF"/>
<path d="M73.0017 7.29473H65.7012V14.5895H73.0017V7.29473Z" fill="#E9F9FF"/>
<path d="M73.0017 0H65.7012V7.29473H73.0017V0Z" fill="#E9F9FF"/>
<path d="M182.499 29.1755H175.198V36.4702H182.499V29.1755Z" fill="#CFF0FF"/>
<path d="M189.8 29.1755H182.499V36.4702H189.8V29.1755Z" fill="#CFF0FF"/>
<path d="M175.199 29.1755H167.898V36.4702H175.199V29.1755Z" fill="#E9F9FF"/>
<path d="M211.701 21.8842H204.4V29.1789H211.701V21.8842Z" fill="#CFF0FF"/>
<path d="M211.701 29.1755H204.4V36.4702H211.701V29.1755Z" fill="#CFF0FF"/>
<path d="M197.1 29.1755H189.8V36.4702H197.1V29.1755Z" fill="#CFF0FF"/>
<path d="M204.401 29.1755H197.101V36.4702H204.401V29.1755Z" fill="#CFF0FF"/>
<path d="M131.399 29.1755H124.099V36.4702H131.399V29.1755Z" fill="#CFF0FF"/>
<path d="M87.5993 29.1755H80.2988V36.4702H87.5993V29.1755Z" fill="#CFF0FF"/>
<path d="M102.2 29.1755H94.8994V36.4702H102.2V29.1755Z" fill="#CFF0FF"/>
<path d="M116.801 29.1755H109.501V36.4702H116.801V29.1755Z" fill="#CFF0FF"/>
<path d="M94.9001 29.1755H87.5996V36.4702H94.9001V29.1755Z" fill="#CFF0FF"/>
<path d="M124.098 29.1755H116.798V36.4702H124.098V29.1755Z" fill="#CFF0FF"/>
<path d="M138.7 29.1755H131.399V36.4702H138.7V29.1755Z" fill="#E9F9FF"/>
<path d="M146 29.1755H138.699V36.4702H146V29.1755Z" fill="#E9F9FF"/>
<path d="M211.701 14.5895H204.4V21.8842H211.701V14.5895Z" fill="#E9F9FF"/>
<path d="M211.701 7.29473H204.4V14.5895H211.701V7.29473Z" fill="#E9F9FF"/>
<path d="M80.2986 43.7649H72.998V51.0596H80.2986V43.7649Z" fill="#CFF0FF"/>
<path d="M109.501 36.4702H102.2V43.7649H109.501V36.4702Z" fill="#CFF0FF"/>
<path d="M65.7009 7.29473H58.4004V14.5895H65.7009V7.29473Z" fill="#E9F9FF"/>
<path d="M65.7009 21.8842H58.4004V29.1789H65.7009V21.8842Z" fill="#CFF0FF"/>
<path d="M65.7009 14.5895H58.4004V21.8842H65.7009V14.5895Z" fill="#CFF0FF"/>
<path d="M65.7009 0H58.4004V7.29473H65.7009V0Z" fill="#E9F9FF"/>
<path d="M65.7009 36.4702H58.4004V43.7649H65.7009V36.4702Z" fill="#CFF0FF"/>
<path d="M65.7009 43.7649H58.4004V51.0596H65.7009V43.7649Z" fill="#CFF0FF"/>
<path d="M73.0017 43.7649H65.7012V51.0596H73.0017V43.7649Z" fill="#CFF0FF"/>
<path d="M116.801 36.4702H109.501V43.7649H116.801V36.4702Z" fill="#CFF0FF"/>
<path d="M65.7009 29.1755H58.4004V36.4702H65.7009V29.1755Z" fill="#CFF0FF"/>
<path d="M211.701 36.4702H204.4V43.7649H211.701V36.4702Z" fill="#E9F9FF"/>
<path d="M218.998 36.4702H211.697V43.7649H218.998V36.4702Z" fill="#CFF0FF"/>
<path d="M204.401 36.4702H197.101V43.7649H204.401V36.4702Z" fill="#CFF0FF"/>
<path d="M197.1 36.4702H189.8V43.7649H197.1V36.4702Z" fill="#CFF0FF"/>
<path d="M218.998 21.8842H211.697V29.1789H218.998V21.8842Z" fill="#CFF0FF"/>
<path d="M218.998 14.5895H211.697V21.8842H218.998V14.5895Z" fill="#E9F9FF"/>
<path d="M218.998 7.29473H211.697V14.5895H218.998V7.29473Z" fill="#E9F9FF"/>
<path d="M218.998 29.1755H211.697V36.4702H218.998V29.1755Z" fill="#CFF0FF"/>
<path d="M189.8 36.4702H182.499V43.7649H189.8V36.4702Z" fill="#CFF0FF"/>
<path d="M146 36.4702H138.699V43.7649H146V36.4702Z" fill="#CFF0FF"/>
<path d="M138.7 36.4702H131.399V43.7649H138.7V36.4702Z" fill="#CFF0FF"/>
<path d="M131.399 36.4702H124.099V43.7649H131.399V36.4702Z" fill="#CFF0FF"/>
<path d="M124.098 36.4702H116.798V43.7649H124.098V36.4702Z" fill="#CFF0FF"/>
<path d="M175.199 36.4702H167.898V43.7649H175.199V36.4702Z" fill="#CFF0FF"/>
<path d="M182.499 36.4702H175.198V43.7649H182.499V36.4702Z" fill="#CFF0FF"/>
<path d="M167.898 36.4702H160.598V43.7649H167.898V36.4702Z" fill="#CFF0FF"/>
<path d="M153.301 36.4702H146V43.7649H153.301V36.4702Z" fill="#CFF0FF"/>
<path d="M160.601 36.4702H153.301V43.7649H160.601V36.4702Z" fill="#E9F9FF"/>
<path d="M255.501 102.119H248.2V109.414H255.501V102.119Z" fill="#ABE1F4"/>
<path d="M248.2 102.119H240.899V109.414H248.2V102.119Z" fill="#ABE1F4"/>
<path d="M240.9 102.119H233.6V109.414H240.9V102.119Z" fill="#ABE1F4"/>
<path d="M226.299 102.119H218.998V109.414H226.299V102.119Z" fill="#ABE1F4"/>
<path d="M233.599 102.119H226.299V109.414H233.599V102.119Z" fill="#ABE1F4"/>
<path d="M284.7 102.119H277.399V109.414H284.7V102.119Z" fill="#84D9EF"/>
<path d="M218.998 102.119H211.697V109.414H218.998V102.119Z" fill="#ABE1F4"/>
<path d="M277.399 102.119H270.099V109.414H277.399V102.119Z" fill="#84D9EF"/>
<path d="M270.098 102.119H262.798V109.414H270.098V102.119Z" fill="#ABE1F4"/>
<path d="M262.798 102.119H255.497V109.414H262.798V102.119Z" fill="#ABE1F4"/>
<path d="M175.199 102.119H167.898V109.414H175.199V102.119Z" fill="#84D9EF"/>
<path d="M167.898 102.119H160.598V109.414H167.898V102.119Z" fill="#84D9EF"/>
<path d="M284.7 94.8246H277.399V102.119H284.7V94.8246Z" fill="#84D9EF"/>
<path d="M160.601 102.119H153.301V109.414H160.601V102.119Z" fill="#84D9EF"/>
<path d="M153.301 102.119H146V109.414H153.301V102.119Z" fill="#84D9EF"/>
<path d="M182.499 102.119H175.198V109.414H182.499V102.119Z" fill="#84D9EF"/>
<path d="M204.401 102.119H197.101V109.414H204.401V102.119Z" fill="#ABE1F4"/>
<path d="M211.701 102.119H204.4V109.414H211.701V102.119Z" fill="#ABE1F4"/>
<path d="M197.1 102.119H189.8V109.414H197.1V102.119Z" fill="#ABE1F4"/>
<path d="M189.8 102.119H182.499V109.414H189.8V102.119Z" fill="#ABE1F4"/>
<path d="M182.499 109.414H175.198V116.709H182.499V109.414Z" fill="#84D9EF"/>
<path d="M51.1003 94.8246H43.7998V102.119H51.1003V94.8246Z" fill="#ABE1F4"/>
<path d="M284.7 43.7649H277.399V51.0596H284.7V43.7649Z" fill="#84D9EF"/>
<path d="M284.7 72.9404H277.399V80.2351H284.7V72.9404Z" fill="#84D9EF"/>
<path d="M284.7 58.3544H277.399V65.6491H284.7V58.3544Z" fill="#84D9EF"/>
<path d="M284.7 80.2351H277.399V87.5298H284.7V80.2351Z" fill="#84D9EF"/>
<path d="M284.7 36.4702H277.399V43.7649H284.7V36.4702Z" fill="#CFF0FF"/>
<path d="M284.7 51.0596H277.399V58.3544H284.7V51.0596Z" fill="#84D9EF"/>
<path d="M284.7 29.1755H277.399V36.4702H284.7V29.1755Z" fill="#CFF0FF"/>
<path d="M284.7 87.5298H277.399V94.8246H284.7V87.5298Z" fill="#84D9EF"/>
<path d="M36.4988 109.414H29.1982V116.709H36.4988V109.414Z" fill="#84D9EF"/>
<path d="M29.2019 109.414H21.9014V116.709H29.2019V109.414Z" fill="#84D9EF"/>
<path d="M102.2 109.414H94.8994V116.709H102.2V109.414Z" fill="#ABE1F4"/>
<path d="M138.7 109.414H131.399V116.709H138.7V109.414Z" fill="#84D9EF"/>
<path d="M146 109.414H138.699V116.709H146V109.414Z" fill="#84D9EF"/>
<path d="M116.801 109.414H109.501V116.709H116.801V109.414Z" fill="#ABE1F4"/>
<path d="M124.098 109.414H116.798V116.709H124.098V109.414Z" fill="#84D9EF"/>
<path d="M131.399 109.414H124.099V116.709H131.399V109.414Z" fill="#84D9EF"/>
<path d="M153.301 109.414H146V116.709H153.301V109.414Z" fill="#84D9EF"/>
<path d="M167.898 109.414H160.598V116.709H167.898V109.414Z" fill="#84D9EF"/>
<path d="M175.199 109.414H167.898V116.709H175.199V109.414Z" fill="#84D9EF"/>
<path d="M73.0017 109.414H65.7012V116.709H73.0017V109.414Z" fill="#84D9EF"/>
<path d="M43.7995 109.414H36.499V116.709H43.7995V109.414Z" fill="#84D9EF"/>
<path d="M58.4011 109.414H51.1006V116.709H58.4011V109.414Z" fill="#84D9EF"/>
<path d="M65.7009 109.414H58.4004V116.709H65.7009V109.414Z" fill="#84D9EF"/>
<path d="M51.1003 109.414H43.7998V116.709H51.1003V109.414Z" fill="#84D9EF"/>
<path d="M94.9001 109.414H87.5996V116.709H94.9001V109.414Z" fill="#ABE1F4"/>
<path d="M109.501 109.414H102.2V116.709H109.501V109.414Z" fill="#ABE1F4"/>
<path d="M87.5993 109.414H80.2988V116.709H87.5993V109.414Z" fill="#ABE1F4"/>
<path d="M80.2986 109.414H72.998V116.709H80.2986V109.414Z" fill="#ABE1F4"/>
<path d="M146 102.119H138.699V109.414H146V102.119Z" fill="#84D9EF"/>
<path d="M277.399 29.1755H270.099V36.4702H277.399V29.1755Z" fill="#CFF0FF"/>
<path d="M146 94.8246H138.699V102.119H146V94.8246Z" fill="#84D9EF"/>
<path d="M138.7 94.8246H131.399V102.119H138.7V94.8246Z" fill="#84D9EF"/>
<path d="M124.098 94.8246H116.798V102.119H124.098V94.8246Z" fill="#ABE1F4"/>
<path d="M131.399 94.8246H124.099V102.119H131.399V94.8246Z" fill="#ABE1F4"/>
<path d="M138.7 102.119H131.399V109.414H138.7V102.119Z" fill="#84D9EF"/>
<path d="M175.199 94.8246H167.898V102.119H175.199V94.8246Z" fill="#ABE1F4"/>
<path d="M182.499 94.8246H175.198V102.119H182.499V94.8246Z" fill="#ABE1F4"/>
<path d="M160.601 94.8246H153.301V102.119H160.601V94.8246Z" fill="#84D9EF"/>
<path d="M167.898 94.8246H160.598V102.119H167.898V94.8246Z" fill="#84D9EF"/>
<path d="M94.9001 94.8246H87.5996V102.119H94.9001V94.8246Z" fill="#CFF0FF"/>
<path d="M65.7009 94.8246H58.4004V102.119H65.7009V94.8246Z" fill="#ABE1F4"/>
<path d="M80.2986 94.8246H72.998V102.119H80.2986V94.8246Z" fill="#ABE1F4"/>
<path d="M116.801 94.8246H109.501V102.119H116.801V94.8246Z" fill="#ABE1F4"/>
<path d="M58.4011 94.8246H51.1006V102.119H58.4011V94.8246Z" fill="#ABE1F4"/>
<path d="M73.0017 94.8246H65.7012V102.119H73.0017V94.8246Z" fill="#ABE1F4"/>
<path d="M102.2 94.8246H94.8994V102.119H102.2V94.8246Z" fill="#CFF0FF"/>
<path d="M87.5993 94.8246H80.2988V102.119H87.5993V94.8246Z" fill="#ABE1F4"/>
<path d="M109.501 94.8246H102.2V102.119H109.501V94.8246Z" fill="#CFF0FF"/>
<path d="M189.8 94.8246H182.499V102.119H189.8V94.8246Z" fill="#ABE1F4"/>
<path d="M277.399 36.4702H270.099V43.7649H277.399V36.4702Z" fill="#CFF0FF"/>
<path d="M277.399 72.9404H270.099V80.2351H277.399V72.9404Z" fill="#84D9EF"/>
<path d="M277.399 87.5298H270.099V94.8246H277.399V87.5298Z" fill="#84D9EF"/>
<path d="M277.399 80.2351H270.099V87.5298H277.399V80.2351Z" fill="#84D9EF"/>
<path d="M277.399 94.8246H270.099V102.119H277.399V94.8246Z" fill="#ABE1F4"/>
<path d="M277.399 58.3544H270.099V65.6491H277.399V58.3544Z" fill="#84D9EF"/>
<path d="M277.399 51.0596H270.099V58.3544H277.399V51.0596Z" fill="#84D9EF"/>
<path d="M277.399 65.6491H270.099V72.9438H277.399V65.6491Z" fill="#84D9EF"/>
<path d="M277.399 43.7649H270.099V51.0596H277.399V43.7649Z" fill="#CFF0FF"/>
<path d="M270.098 94.8246H262.798V102.119H270.098V94.8246Z" fill="#ABE1F4"/>
<path d="M240.9 94.8246H233.6V102.119H240.9V94.8246Z" fill="#ABE1F4"/>
<path d="M262.798 94.8246H255.497V102.119H262.798V94.8246Z" fill="#ABE1F4"/>
<path d="M226.299 94.8246H218.998V102.119H226.299V94.8246Z" fill="#ABE1F4"/>
<path d="M211.701 94.8246H204.4V102.119H211.701V94.8246Z" fill="#ABE1F4"/>
<path d="M204.401 94.8246H197.101V102.119H204.401V94.8246Z" fill="#ABE1F4"/>
<path d="M218.998 94.8246H211.697V102.119H218.998V94.8246Z" fill="#ABE1F4"/>
<path d="M248.2 94.8246H240.899V102.119H248.2V94.8246Z" fill="#ABE1F4"/>
<path d="M255.501 94.8246H248.2V102.119H255.501V94.8246Z" fill="#ABE1F4"/>
<path d="M197.1 94.8246H189.8V102.119H197.1V94.8246Z" fill="#ABE1F4"/>
<path d="M233.599 94.8246H226.299V102.119H233.599V94.8246Z" fill="#ABE1F4"/>
<path d="M153.301 94.8246H146V102.119H153.301V94.8246Z" fill="#84D9EF"/>
<path d="M7.30052 72.9404H0V80.2351H7.30052V72.9404Z" fill="#ABE1F4"/>
<path d="M7.30052 80.2351H0V87.5298H7.30052V80.2351Z" fill="#ABE1F4"/>
<path d="M80.2986 102.119H72.998V109.414H80.2986V102.119Z" fill="#ABE1F4"/>
<path d="M94.9001 102.119H87.5996V109.414H94.9001V102.119Z" fill="#ABE1F4"/>
<path d="M87.5993 102.119H80.2988V109.414H87.5993V102.119Z" fill="#ABE1F4"/>
<path d="M102.2 102.119H94.8994V109.414H102.2V102.119Z" fill="#ABE1F4"/>
<path d="M109.501 102.119H102.2V109.414H109.501V102.119Z" fill="#ABE1F4"/>
<path d="M7.30052 94.8246H0V102.119H7.30052V94.8246Z" fill="#84D9EF"/>
<path d="M73.0017 102.119H65.7012V109.414H73.0017V102.119Z" fill="#ABE1F4"/>
<path d="M131.399 102.119H124.099V109.414H131.399V102.119Z" fill="#ABE1F4"/>
<path d="M116.801 102.119H109.501V109.414H116.801V102.119Z" fill="#ABE1F4"/>
<path d="M124.098 102.119H116.798V109.414H124.098V102.119Z" fill="#ABE1F4"/>
<path d="M21.9011 102.119H14.6006V109.414H21.9011V102.119Z" fill="#84D9EF"/>
<path d="M65.7009 102.119H58.4004V109.414H65.7009V102.119Z" fill="#ABE1F4"/>
<path d="M29.2019 102.119H21.9014V109.414H29.2019V102.119Z" fill="#84D9EF"/>
<path d="M58.4011 102.119H51.1006V109.414H58.4011V102.119Z" fill="#ABE1F4"/>
<path d="M36.4988 102.119H29.1982V109.414H36.4988V102.119Z" fill="#84D9EF"/>
<path d="M51.1003 102.119H43.7998V109.414H51.1003V102.119Z" fill="#84D9EF"/>
<path d="M43.7995 102.119H36.499V109.414H43.7995V102.119Z" fill="#84D9EF"/>
<path d="M7.30052 87.5298H0V94.8246H7.30052V87.5298Z" fill="#ABE1F4"/>
<path d="M197.1 116.705H189.8V124H197.1V116.705Z" fill="#84D9EF"/>
<path d="M189.8 116.705H182.499V124H189.8V116.705Z" fill="#84D9EF"/>
<path d="M204.401 116.705H197.101V124H204.401V116.705Z" fill="#84D9EF"/>
<path d="M218.998 116.705H211.697V124H218.998V116.705Z" fill="#84D9EF"/>
<path d="M211.701 116.705H204.4V124H211.701V116.705Z" fill="#84D9EF"/>
<path d="M131.399 116.705H124.099V124H131.399V116.705Z" fill="#84D9EF"/>
<path d="M277.399 109.414H270.099V116.709H277.399V109.414Z" fill="#84D9EF"/>
<path d="M292 87.5298H284.699V94.8246H292V87.5298Z" fill="#84D9EF"/>
<path d="M292 80.2351H284.699V87.5298H292V80.2351Z" fill="#84D9EF"/>
<path d="M292 94.8246H284.699V102.119H292V94.8246Z" fill="#84D9EF"/>
<path d="M262.798 109.414H255.497V116.709H262.798V109.414Z" fill="#ABE1F4"/>
<path d="M270.098 109.414H262.798V116.709H270.098V109.414Z" fill="#84D9EF"/>
<path d="M211.701 109.414H204.4V116.709H211.701V109.414Z" fill="#84D9EF"/>
<path d="M255.501 109.414H248.2V116.709H255.501V109.414Z" fill="#ABE1F4"/>
<path d="M197.1 109.414H189.8V116.709H197.1V109.414Z" fill="#84D9EF"/>
<path d="M218.998 109.414H211.697V116.709H218.998V109.414Z" fill="#84D9EF"/>
<path d="M204.401 109.414H197.101V116.709H204.401V109.414Z" fill="#84D9EF"/>
<path d="M226.299 109.414H218.998V116.709H226.299V109.414Z" fill="#84D9EF"/>
<path d="M248.2 109.414H240.899V116.709H248.2V109.414Z" fill="#ABE1F4"/>
<path d="M233.599 109.414H226.299V116.709H233.599V109.414Z" fill="#ABE1F4"/>
<path d="M116.801 116.705H109.501V124H116.801V116.705Z" fill="#84D9EF"/>
<path d="M109.501 116.705H102.2V124H109.501V116.705Z" fill="#84D9EF"/>
<path d="M102.2 116.705H94.8994V124H102.2V116.705Z" fill="#84D9EF"/>
<path d="M124.098 116.705H116.798V124H124.098V116.705Z" fill="#84D9EF"/>
<path d="M189.8 109.414H182.499V116.709H189.8V109.414Z" fill="#84D9EF"/>
<path d="M146 116.705H138.699V124H146V116.705Z" fill="#84D9EF"/>
<path d="M94.9001 116.705H87.5996V124H94.9001V116.705Z" fill="#84D9EF"/>
<path d="M138.7 116.705H131.399V124H138.7V116.705Z" fill="#84D9EF"/>
<path d="M87.5993 116.705H80.2988V124H87.5993V116.705Z" fill="#84D9EF"/>
</g>
<defs>
<clipPath id="clip0_28_34227">
<rect width="292" height="124" fill="white"/>
</clipPath>
</defs>
</svg>
