<svg width="119" height="67" viewBox="0 0 119 67" fill="none" xmlns="http://www.w3.org/2000/svg">
<g clip-path="url(#clip0_28_35415)">
<path d="M37.1873 0H44.6255V7.44484H37.1873V0Z" fill="#CFF0FF"/>
<path d="M37.1873 7.44484H44.6255V14.8897H37.1873V7.44484Z" fill="#CFF0FF"/>
<path d="M66.9363 22.3345H74.3745V29.7793H66.9363V22.3345Z" fill="#CFF0FF"/>
<path d="M52.0599 22.3345H59.498V29.7793H52.0599V22.3345Z" fill="#CFF0FF"/>
<path d="M44.6219 22.3345H52.0601V29.7793H44.6219V22.3345Z" fill="#CFF0FF"/>
<path d="M37.1873 22.3345H44.6255V29.7793H37.1873V22.3345Z" fill="#CFF0FF"/>
<path d="M59.4984 22.3345H66.9365V29.7793H59.4984V22.3345Z" fill="#CFF0FF"/>
<path d="M29.7493 22.3345H37.1875V29.7793H29.7493V22.3345Z" fill="#CFF0FF"/>
<path d="M29.7493 0H37.1875V7.44484H29.7493V0Z" fill="#CFF0FF"/>
<path d="M29.7493 7.44484H37.1875V14.8897H29.7493V7.44484Z" fill="#CFF0FF"/>
<path d="M29.7493 14.8897H37.1875V22.3345H29.7493V14.8897Z" fill="#CFF0FF"/>
<path d="M74.3743 22.3345H81.8125V29.7793H74.3743V22.3345Z" fill="#CFF0FF"/>
<path d="M89.2474 22.3345H96.6855V29.7793H89.2474V22.3345Z" fill="#CFF0FF"/>
<path d="M81.8128 22.3345H89.251V29.7793H81.8128V22.3345Z" fill="#CFF0FF"/>
<path d="M96.6854 22.3345H104.124V29.7793H96.6854V22.3345Z" fill="#CFF0FF"/>
<path d="M44.6219 7.44484H52.0601V14.8897H44.6219V7.44484Z" fill="#CFF0FF"/>
<path d="M44.6219 0H52.0601V7.44484H44.6219V0Z" fill="#CFF0FF"/>
<path d="M52.0599 7.44484H59.498V14.8897H52.0599V7.44484Z" fill="#CFF0FF"/>
<path d="M59.4984 7.44484H66.9365V14.8897H59.4984V7.44484Z" fill="#CFF0FF"/>
<path d="M37.1873 14.8897H44.6255V22.3345H37.1873V14.8897Z" fill="#CFF0FF"/>
<path d="M74.3743 14.8897H81.8125V22.3345H74.3743V14.8897Z" fill="#CFF0FF"/>
<path d="M44.6219 14.8897H52.0601V22.3345H44.6219V14.8897Z" fill="#CFF0FF"/>
<path d="M52.0599 14.8897H59.498V22.3345H52.0599V14.8897Z" fill="#CFF0FF"/>
<path d="M59.4984 14.8897H66.9365V22.3345H59.4984V14.8897Z" fill="#CFF0FF"/>
<path d="M66.9363 14.8897H74.3745V22.3345H66.9363V14.8897Z" fill="#CFF0FF"/>
<path d="M22.3109 37.2207H29.749V44.6655H22.3109V37.2207Z" fill="#ABE1F4"/>
<path d="M14.8729 37.2207H22.311V44.6655H14.8729V37.2207Z" fill="#ABE1F4"/>
<path d="M14.8729 7.44484H22.311V14.8897H14.8729V7.44484Z" fill="#CFF0FF"/>
<path d="M14.8729 29.7758H22.311V37.2207H14.8729V29.7758Z" fill="#ABE1F4"/>
<path d="M14.8729 14.8897H22.311V22.3345H14.8729V14.8897Z" fill="#CFF0FF"/>
<path d="M14.8729 0H22.311V7.44484H14.8729V0Z" fill="#CFF0FF"/>
<path d="M96.6854 37.2207H104.124V44.6655H96.6854V37.2207Z" fill="#ABE1F4"/>
<path d="M14.8729 22.3345H22.311V29.7793H14.8729V22.3345Z" fill="#ABE1F4"/>
<path d="M81.8128 37.2207H89.251V44.6655H81.8128V37.2207Z" fill="#ABE1F4"/>
<path d="M74.3743 37.2207H81.8125V44.6655H74.3743V37.2207Z" fill="#ABE1F4"/>
<path d="M29.7493 37.2207H37.1875V44.6655H29.7493V37.2207Z" fill="#ABE1F4"/>
<path d="M66.9363 37.2207H74.3745V44.6655H66.9363V37.2207Z" fill="#ABE1F4"/>
<path d="M89.2474 37.2207H96.6855V44.6655H89.2474V37.2207Z" fill="#ABE1F4"/>
<path d="M37.1873 37.2207H44.6255V44.6655H37.1873V37.2207Z" fill="#ABE1F4"/>
<path d="M44.6219 37.2207H52.0601V44.6655H44.6219V37.2207Z" fill="#ABE1F4"/>
<path d="M59.4984 37.2207H66.9365V44.6655H59.4984V37.2207Z" fill="#ABE1F4"/>
<path d="M52.0599 37.2207H59.498V44.6655H52.0599V37.2207Z" fill="#ABE1F4"/>
<path d="M104.123 37.2207H111.562V44.6655H104.123V37.2207Z" fill="#ABE1F4"/>
<path d="M111.562 37.2207H119V44.6655H111.562V37.2207Z" fill="#ABE1F4"/>
<path d="M22.3109 29.7758H29.749V37.2207H22.3109V29.7758Z" fill="#ABE1F4"/>
<path d="M74.3743 29.7758H81.8125V37.2207H74.3743V29.7758Z" fill="#CFF0FF"/>
<path d="M66.9363 29.7758H74.3745V37.2207H66.9363V29.7758Z" fill="#CFF0FF"/>
<path d="M59.4984 29.7758H66.9365V37.2207H59.4984V29.7758Z" fill="#CFF0FF"/>
<path d="M81.8128 29.7758H89.251V37.2207H81.8128V29.7758Z" fill="#ABE1F4"/>
<path d="M37.1873 29.7758H44.6255V37.2207H37.1873V29.7758Z" fill="#CFF0FF"/>
<path d="M89.2474 29.7758H96.6855V37.2207H89.2474V29.7758Z" fill="#ABE1F4"/>
<path d="M29.7493 29.7758H37.1875V37.2207H29.7493V29.7758Z" fill="#ABE1F4"/>
<path d="M44.6219 29.7758H52.0601V37.2207H44.6219V29.7758Z" fill="#CFF0FF"/>
<path d="M52.0599 29.7758H59.498V37.2207H52.0599V29.7758Z" fill="#ABE1F4"/>
<path d="M104.123 29.7758H111.562V37.2207H104.123V29.7758Z" fill="#ABE1F4"/>
<path d="M96.6854 29.7758H104.124V37.2207H96.6854V29.7758Z" fill="#ABE1F4"/>
<path d="M111.562 29.7758H119V37.2207H111.562V29.7758Z" fill="#ABE1F4"/>
<path d="M22.3109 22.3345H29.749V29.7793H22.3109V22.3345Z" fill="#ABE1F4"/>
<path d="M22.3109 0H29.749V7.44484H22.3109V0Z" fill="#CFF0FF"/>
<path d="M22.3109 14.8897H29.749V22.3345H22.3109V14.8897Z" fill="#CFF0FF"/>
<path d="M22.3109 7.44484H29.749V14.8897H22.3109V7.44484Z" fill="#CFF0FF"/>
<path d="M29.7493 52.1103H37.1875V59.5552H29.7493V52.1103Z" fill="#ABE1F4"/>
<path d="M37.1873 52.1103H44.6255V59.5552H37.1873V52.1103Z" fill="#ABE1F4"/>
<path d="M44.6219 52.1103H52.0601V59.5552H44.6219V52.1103Z" fill="#ABE1F4"/>
<path d="M59.4984 52.1103H66.9365V59.5552H59.4984V52.1103Z" fill="#ABE1F4"/>
<path d="M52.0599 52.1103H59.498V59.5552H52.0599V52.1103Z" fill="#ABE1F4"/>
<path d="M66.9363 52.1103H74.3745V59.5552H66.9363V52.1103Z" fill="#ABE1F4"/>
<path d="M7.4344 52.1103H14.8726V59.5552H7.4344V52.1103Z" fill="#84D9EF"/>
<path d="M14.8729 52.1103H22.311V59.5552H14.8729V52.1103Z" fill="#84D9EF"/>
<path d="M22.3109 52.1103H29.749V59.5552H22.3109V52.1103Z" fill="#84D9EF"/>
<path d="M-0.00359106 44.6655H7.43457V52.1103H-0.00359106V44.6655Z" fill="#84D9EF"/>
<path d="M81.8128 52.1103H89.251V59.5552H81.8128V52.1103Z" fill="#84D9EF"/>
<path d="M74.3743 52.1103H81.8125V59.5552H74.3743V52.1103Z" fill="#ABE1F4"/>
<path d="M89.2474 52.1103H96.6855V59.5552H89.2474V52.1103Z" fill="#84D9EF"/>
<path d="M96.6854 52.1103H104.124V59.5552H96.6854V52.1103Z" fill="#84D9EF"/>
<path d="M-0.00359106 22.3345H7.43457V29.7793H-0.00359106V22.3345Z" fill="#84D9EF"/>
<path d="M-0.00359106 14.8897H7.43457V22.3345H-0.00359106V14.8897Z" fill="#84D9EF"/>
<path d="M-0.00359106 29.7758H7.43457V37.2207H-0.00359106V29.7758Z" fill="#84D9EF"/>
<path d="M-0.00359106 37.2207H7.43457V44.6655H-0.00359106V37.2207Z" fill="#84D9EF"/>
<path d="M104.123 44.6655H111.562V52.1103H104.123V44.6655Z" fill="#ABE1F4"/>
<path d="M96.6854 44.6655H104.124V52.1103H96.6854V44.6655Z" fill="#ABE1F4"/>
<path d="M7.4344 22.3345H14.8726V29.7793H7.4344V22.3345Z" fill="#CFF0FF"/>
<path d="M7.4344 37.2207H14.8726V44.6655H7.4344V37.2207Z" fill="#84D9EF"/>
<path d="M7.4344 29.7758H14.8726V37.2207H7.4344V29.7758Z" fill="#ABE1F4"/>
<path d="M7.4344 44.6655H14.8726V52.1103H7.4344V44.6655Z" fill="#84D9EF"/>
<path d="M7.4344 7.44484H14.8726V14.8897H7.4344V7.44484Z" fill="#CFF0FF"/>
<path d="M7.4344 14.8897H14.8726V22.3345H7.4344V14.8897Z" fill="#CFF0FF"/>
<path d="M14.8729 44.6655H22.311V52.1103H14.8729V44.6655Z" fill="#84D9EF"/>
<path d="M44.6219 44.6655H52.0601V52.1103H44.6219V44.6655Z" fill="#ABE1F4"/>
<path d="M22.3109 44.6655H29.749V52.1103H22.3109V44.6655Z" fill="#ABE1F4"/>
<path d="M59.4984 44.6655H66.9365V52.1103H59.4984V44.6655Z" fill="#ABE1F4"/>
<path d="M74.3743 44.6655H81.8125V52.1103H74.3743V44.6655Z" fill="#ABE1F4"/>
<path d="M81.8128 44.6655H89.251V52.1103H81.8128V44.6655Z" fill="#ABE1F4"/>
<path d="M66.9363 44.6655H74.3745V52.1103H66.9363V44.6655Z" fill="#ABE1F4"/>
<path d="M37.1873 44.6655H44.6255V52.1103H37.1873V44.6655Z" fill="#ABE1F4"/>
<path d="M29.7493 44.6655H37.1875V52.1103H29.7493V44.6655Z" fill="#ABE1F4"/>
<path d="M89.2474 44.6655H96.6855V52.1103H89.2474V44.6655Z" fill="#ABE1F4"/>
<path d="M52.0599 44.6655H59.498V52.1103H52.0599V44.6655Z" fill="#ABE1F4"/>
<path d="M22.3109 59.5552H29.749V67H22.3109V59.5552Z" fill="#84D9EF"/>
<path d="M14.8729 59.5552H22.311V67H14.8729V59.5552Z" fill="#84D9EF"/>
<path d="M29.7493 59.5552H37.1875V67H29.7493V59.5552Z" fill="#84D9EF"/>
<path d="M37.1873 59.5552H44.6255V67H37.1873V59.5552Z" fill="#ABE1F4"/>
<path d="M44.6219 59.5552H52.0601V67H44.6219V59.5552Z" fill="#ABE1F4"/>
</g>
<defs>
<clipPath id="clip0_28_35415">
<rect width="119" height="67" fill="white" transform="matrix(-1 0 0 1 119 0)"/>
</clipPath>
</defs>
</svg>
