<svg width="25" height="25" viewBox="0 0 25 25" fill="none" xmlns="http://www.w3.org/2000/svg">
<path d="M8.20711 5.79289C7.81658 5.40237 7.18342 5.40237 6.79289 5.79289C6.40237 6.18342 6.40237 6.81658 6.79289 7.20711L11.7929 12.2071C12.1834 12.5976 12.8166 12.5976 13.2071 12.2071L18.2071 7.20711C18.5976 6.81658 18.5976 6.18342 18.2071 5.79289C17.8166 5.40237 17.1834 5.40237 16.7929 5.79289L12.5 10.0858L8.20711 5.79289Z" fill="black"/>
<path d="M8.20711 12.7929C7.81658 12.4024 7.18342 12.4024 6.79289 12.7929C6.40237 13.1834 6.40237 13.8166 6.79289 14.2071L11.7929 19.2071C12.1834 19.5976 12.8166 19.5976 13.2071 19.2071L18.2071 14.2071C18.5976 13.8166 18.5976 13.1834 18.2071 12.7929C17.8166 12.4024 17.1834 12.4024 16.7929 12.7929L12.5 17.0858L8.20711 12.7929Z" fill="black"/>
</svg>
