<svg width="31" height="31" viewBox="0 0 31 31" fill="none" xmlns="http://www.w3.org/2000/svg">
<g clip-path="url(#clip0_81_2562)">
<path d="M26.2428 5.36764C24.267 4.46104 22.1482 3.7931 19.9329 3.41054C19.8925 3.40316 19.8522 3.42161 19.8314 3.45851C19.5589 3.94316 19.2571 4.57543 19.0457 5.07239C16.663 4.71568 14.2925 4.71568 11.9587 5.07239C11.7473 4.56439 11.4345 3.94316 11.1607 3.45851C11.14 3.42284 11.0997 3.40439 11.0593 3.41054C8.84522 3.79188 6.72643 4.45982 4.74937 5.36764C4.73226 5.37501 4.71759 5.38733 4.70785 5.40331C0.688964 11.4074 -0.411977 17.264 0.128108 23.0479C0.130551 23.0762 0.146436 23.1033 0.168431 23.1205C2.81998 25.0677 5.38846 26.2499 7.90924 27.0335C7.94958 27.0458 7.99232 27.031 8.018 26.9978C8.61429 26.1835 9.14583 25.3249 9.60157 24.4219C9.62847 24.3691 9.60279 24.3063 9.54782 24.2854C8.70471 23.9656 7.9019 23.5756 7.12965 23.1328C7.06857 23.0971 7.06368 23.0098 7.11987 22.968C7.28238 22.8462 7.44493 22.7195 7.60011 22.5915C7.62818 22.5682 7.6673 22.5633 7.70031 22.578C12.7737 24.8943 18.2662 24.8943 23.2796 22.578C23.3127 22.562 23.3518 22.567 23.3811 22.5903C23.5363 22.7182 23.6988 22.8462 23.8625 22.968C23.9187 23.0098 23.9151 23.0971 23.854 23.1328C23.0817 23.5842 22.2789 23.9656 21.4346 24.2842C21.3796 24.3051 21.3552 24.3691 21.3821 24.4219C21.8476 25.3236 22.3791 26.1822 22.9644 26.9966C22.9889 27.031 23.0328 27.0458 23.0732 27.0335C25.6062 26.2499 28.1746 25.0677 30.8262 23.1205C30.8494 23.1033 30.8641 23.0775 30.8665 23.0492C31.5129 16.3623 29.7839 10.5538 26.2831 5.40453C26.2745 5.38733 26.2599 5.37501 26.2428 5.36764ZM10.3592 19.5261C8.83177 19.5261 7.57321 18.1238 7.57321 16.4017C7.57321 14.6795 8.80736 13.2772 10.3592 13.2772C11.9232 13.2772 13.1696 14.6918 13.1451 16.4017C13.1451 18.1238 11.911 19.5261 10.3592 19.5261ZM20.6599 19.5261C19.1325 19.5261 17.8739 18.1238 17.8739 16.4017C17.8739 14.6795 19.108 13.2772 20.6599 13.2772C22.2239 13.2772 23.4703 14.6918 23.4459 16.4017C23.4459 18.1238 22.2239 19.5261 20.6599 19.5261Z" fill="white"/>
</g>
<defs>
<clipPath id="clip0_81_2562">
<rect width="31" height="31" fill="white"/>
</clipPath>
</defs>
</svg>
