<svg width="24" height="19" viewBox="0 0 24 19" fill="none" xmlns="http://www.w3.org/2000/svg">
<path d="M20.317 1.98253C18.7873 1.30989 17.147 0.814321 15.4319 0.530488C15.4007 0.52501 15.3695 0.538699 15.3534 0.566079C15.1424 0.92566 14.9087 1.39476 14.7451 1.76348C12.9004 1.49881 11.0652 1.49881 9.25832 1.76348C9.09465 1.38657 8.85248 0.92566 8.64057 0.566079C8.62448 0.539613 8.59328 0.525923 8.56205 0.530488C6.84791 0.813413 5.20756 1.30898 3.67693 1.98253C3.66368 1.988 3.65233 1.99714 3.64479 2.00899C0.533392 6.46367 -0.31895 10.8089 0.0991801 15.1002C0.101072 15.1212 0.11337 15.1412 0.130398 15.154C2.18321 16.5987 4.17171 17.4758 6.12328 18.0572C6.15451 18.0663 6.18761 18.0553 6.20748 18.0307C6.66913 17.4265 7.08064 16.7895 7.43348 16.1196C7.4543 16.0804 7.43442 16.0338 7.39186 16.0183C6.73913 15.781 6.1176 15.4917 5.51973 15.1631C5.47244 15.1367 5.46865 15.0719 5.51216 15.0408C5.63797 14.9505 5.76382 14.8565 5.88396 14.7616C5.90569 14.7442 5.93598 14.7406 5.96153 14.7515C9.88928 16.4701 14.1415 16.4701 18.023 14.7515C18.0485 14.7397 18.0788 14.7433 18.1015 14.7606C18.2216 14.8556 18.3475 14.9505 18.4742 15.0408C18.5177 15.0719 18.5149 15.1367 18.4676 15.1631C17.8697 15.4981 17.2482 15.781 16.5945 16.0174C16.552 16.0329 16.533 16.0804 16.5538 16.1196C16.9143 16.7886 17.3258 17.4256 17.7789 18.0298C17.7978 18.0553 17.8319 18.0663 17.8631 18.0572C19.8241 17.4758 21.8126 16.5987 23.8654 15.154C23.8834 15.1412 23.8948 15.1221 23.8967 15.1011C24.3971 10.1398 23.0585 5.8303 20.3482 2.0099C20.3416 1.99714 20.3303 1.988 20.317 1.98253ZM8.02002 12.4872C6.8375 12.4872 5.86313 11.4468 5.86313 10.1691C5.86313 8.89134 6.8186 7.85093 8.02002 7.85093C9.23087 7.85093 10.1958 8.90047 10.1769 10.1691C10.1769 11.4468 9.22141 12.4872 8.02002 12.4872ZM15.9947 12.4872C14.8123 12.4872 13.8379 11.4468 13.8379 10.1691C13.8379 8.89134 14.7933 7.85093 15.9947 7.85093C17.2056 7.85093 18.1705 8.90047 18.1516 10.1691C18.1516 11.4468 17.2056 12.4872 15.9947 12.4872Z" fill="black"/>
</svg>
