<svg width="24" height="19" viewBox="0 0 24 19" fill="none" xmlns="http://www.w3.org/2000/svg">
<path fill-rule="evenodd" clip-rule="evenodd" d="M1.64987 8.1795C8.09231 5.49816 12.3883 3.73046 14.5378 2.87639C20.675 0.437858 21.9503 0.0142587 22.7815 0.000271208C22.9643 -0.00280519 23.3731 0.0404755 23.6379 0.245716C23.8614 0.419017 23.9229 0.653123 23.9524 0.817431C23.9818 0.98174 24.0185 1.35604 23.9893 1.64851C23.6568 4.98667 22.2177 13.0875 21.4856 16.8263C21.1758 18.4083 20.5658 18.9388 19.9753 18.9907C18.6919 19.1035 17.7174 18.1805 16.4744 17.4021C14.5294 16.1842 13.4305 15.426 11.5425 14.2375C9.36064 12.8639 10.7751 12.109 12.0185 10.8752C12.344 10.5524 17.9985 5.63917 18.1079 5.19347C18.1216 5.13773 18.1343 4.92995 18.0051 4.82023C17.8759 4.71051 17.6851 4.74803 17.5475 4.77787C17.3524 4.82017 14.2452 6.78208 8.22584 10.6636C7.34386 11.2422 6.545 11.524 5.82924 11.5093C5.04018 11.493 3.52233 11.0831 2.39397 10.7327C1.00999 10.3029 -0.0899676 10.0757 0.00581423 9.34585C0.0557033 8.9657 0.603723 8.57691 1.64987 8.1795Z" fill="black"/>
</svg>
