<svg width="31" height="25" viewBox="0 0 31 25" fill="none" xmlns="http://www.w3.org/2000/svg">
<path fill-rule="evenodd" clip-rule="evenodd" d="M2.13109 10.7623C10.4526 7.23426 16.0015 4.90834 18.778 3.78456C26.7052 0.575968 28.3525 0.0186008 29.4261 0.000196234C29.6622 -0.00385165 30.1902 0.0530967 30.5322 0.32315C30.821 0.551178 30.9005 0.859211 30.9385 1.07541C30.9765 1.2916 31.0239 1.7841 30.9862 2.16893C30.5566 6.56125 28.6978 17.2203 27.7522 22.1397C27.3521 24.2214 26.5642 24.9193 25.8014 24.9876C24.1437 25.1361 22.885 23.9216 21.2794 22.8974C18.7671 21.2948 17.3478 20.2972 14.9091 18.7333C12.0908 16.926 13.9178 15.9327 15.5239 14.3094C15.9443 13.8845 23.248 7.41981 23.3894 6.83335C23.407 6.76001 23.4235 6.48661 23.2565 6.34225C23.0896 6.19788 22.8433 6.24725 22.6655 6.28651C22.4136 6.34216 18.4001 8.92363 10.625 14.0309C9.48582 14.7921 8.45395 15.1631 7.52943 15.1436C6.51023 15.1222 4.54968 14.5828 3.09221 14.1218C1.30457 13.5563 -0.116208 13.2574 0.00751004 12.297C0.0719501 11.7968 0.779809 11.2853 2.13109 10.7623Z" fill="white"/>
</svg>
