<svg width="191" height="191" viewBox="0 0 191 191" fill="none" xmlns="http://www.w3.org/2000/svg">
<path d="M95.4197 190.19C147.931 190.19 190.5 147.621 190.5 95.1101C190.5 42.5989 147.931 0.0300293 95.4197 0.0300293C42.9084 0.0300293 0.339844 42.5989 0.339844 95.1101C0.339844 147.621 42.9084 190.19 95.4197 190.19Z" fill="white"/>
<path fill-rule="evenodd" clip-rule="evenodd" d="M124.08 133.79C122.79 133.36 121.58 132.64 120.56 131.62L113.78 124.84L111.86 122.92L109.939 124.84L107.219 127.56L104.629 130.15L99.9395 134.84L104.29 139.19L106.27 141.17L108.639 143.54C112.029 146.93 116.139 149.18 120.479 150.29C121.359 150.52 122.259 150.7 123.159 150.83C131.029 151.99 139.35 149.56 145.37 143.54C151.4 137.51 153.829 129.2 152.659 121.33C152.529 120.43 152.35 119.54 152.12 118.65C151 114.3 148.75 110.19 145.37 106.81L143 104.44C132.62 94.0599 122.24 83.68 111.86 73.3L107.219 77.9399L104.629 80.53L99.9395 85.22C111.039 96.32 122.269 107.55 133.449 118.73C134.469 119.75 135.19 120.96 135.62 122.25C135.9 123.09 136.05 123.96 136.09 124.84C136.18 127.29 135.299 129.77 133.459 131.62C131.619 133.46 129.129 134.34 126.679 134.25C125.799 134.22 124.93 134.06 124.09 133.78L124.08 133.79Z" fill="#23D8F0"/>
<path fill-rule="evenodd" clip-rule="evenodd" d="M82.44 124.85L75.66 131.63C74.64 132.65 73.43 133.37 72.14 133.8C71.3 134.08 70.4302 134.23 69.5502 134.27C67.1002 134.36 64.6201 133.48 62.7701 131.64C60.9301 129.8 60.05 127.31 60.14 124.86C60.17 123.98 60.3302 123.11 60.6102 122.27C61.7102 118.97 67.0002 114.53 69.5602 111.97L71.4801 110.05L69.5602 108.13L66.8402 105.41L64.2501 102.82L59.5602 98.1301C53.4402 104.25 46.3302 109.99 44.1102 118.67C43.8802 119.55 43.7002 120.45 43.5702 121.35C42.4102 129.22 44.8402 137.54 50.8602 143.56C56.8902 149.59 65.2002 152.02 73.0702 150.85C73.9702 150.72 74.8601 150.54 75.7501 150.31C80.1001 149.19 84.2102 146.94 87.5902 143.56L89.9601 141.19L91.94 139.21C101.66 129.49 111.38 119.77 121.1 110.05L116.46 105.41L113.87 102.82L109.18 98.1301L107.24 100.07C99.0601 108.25 90.7201 116.59 82.4501 124.86L82.44 124.85Z" fill="black"/>
<path fill-rule="evenodd" clip-rule="evenodd" d="M120.56 60.94C121.58 59.92 122.79 59.2 124.08 58.77C124.92 58.49 125.79 58.3401 126.67 58.3001C129.12 58.2101 131.6 59.09 133.45 60.93C135.29 62.77 136.17 65.26 136.08 67.71C136.05 68.59 135.89 69.4601 135.61 70.3001C135.18 71.5901 134.46 72.8001 133.44 73.8201L126.66 80.6001L124.74 82.52C128.71 86.49 132.69 90.47 136.66 94.44C139.56 91.54 142.46 88.64 145.36 85.74C148.75 82.35 151 78.2399 152.11 73.8999C152.34 73.0199 152.52 72.12 152.65 71.22C153.81 63.35 151.38 55.03 145.36 49.01C139.33 42.98 131.02 40.55 123.15 41.72C122.25 41.85 121.36 42.03 120.47 42.26C116.12 43.38 112.01 45.63 108.63 49.01L106.26 51.3802C95.88 61.7602 85.5001 72.14 75.1201 82.52L79.76 87.1599L82.3501 89.75L87.04 94.44L88.98 92.5C94.14 87.34 99.3801 82.1001 104.62 76.8601C109.93 71.5501 115.24 66.24 120.55 60.93L120.56 60.94Z" fill="black"/>
<path fill-rule="evenodd" clip-rule="evenodd" d="M84.3601 119.26L89 114.62L91.5901 112.03L96.2801 107.34L94.3401 105.4C83.8201 94.88 73.3 84.3602 62.77 73.8302C61.75 72.8102 61.0301 71.6002 60.6001 70.3102C60.3201 69.4702 60.1699 68.6001 60.1299 67.7201C60.0399 65.2701 60.92 62.79 62.76 60.94C62.79 60.91 62.8201 60.8802 62.8501 60.8502C62.8801 60.8202 62.91 60.7901 62.94 60.7701C62.97 60.7401 63.0001 60.71 63.0301 60.69C63.0601 60.66 63.0901 60.6402 63.1201 60.6102C63.1501 60.5802 63.18 60.5601 63.21 60.5301C63.24 60.5001 63.2701 60.4801 63.3001 60.4501C63.3301 60.4201 63.3599 60.4002 63.3899 60.3702C63.4199 60.3402 63.45 60.3201 63.48 60.2901C63.51 60.2601 63.5401 60.2401 63.5701 60.2201C63.6001 60.2001 63.6299 60.17 63.6599 60.15C63.6899 60.13 63.72 60.1002 63.76 60.0802C63.79 60.0602 63.8201 60.0301 63.8601 60.0101C63.8901 59.9901 63.92 59.96 63.96 59.94C63.99 59.92 64.0301 59.8902 64.0601 59.8702C64.0901 59.8502 64.1299 59.8302 64.1599 59.8002C64.1899 59.7802 64.23 59.7601 64.26 59.7401C64.29 59.7201 64.3301 59.7 64.3601 59.68C64.3901 59.66 64.43 59.6402 64.46 59.6202C64.49 59.6002 64.5301 59.5802 64.5601 59.5602C64.5901 59.5402 64.6299 59.5201 64.6599 59.5001C64.6599 59.5001 64.73 59.46 64.76 59.44C64.79 59.42 64.8301 59.4002 64.8601 59.3802C64.8901 59.3602 64.93 59.3402 64.96 59.3302C64.99 59.3102 65.0301 59.2901 65.0601 59.2801C65.0901 59.2601 65.1299 59.2501 65.1599 59.2301C65.1599 59.2301 65.23 59.2 65.27 59.18C65.31 59.16 65.3399 59.1502 65.3799 59.1302C65.3799 59.1302 65.45 59.1002 65.49 59.0802C65.49 59.0802 65.5601 59.0501 65.6001 59.0301C65.6401 59.0101 65.67 59.0001 65.71 58.9901C65.75 58.9801 65.7801 58.9601 65.8201 58.9501C65.8201 58.9501 65.89 58.92 65.93 58.91C65.93 58.91 66.0001 58.8802 66.0401 58.8702C66.0401 58.8702 66.1099 58.8402 66.1499 58.8302C66.1899 58.8202 66.22 58.8001 66.26 58.7901C66.3 58.7801 66.3301 58.7701 66.3701 58.7501C66.4101 58.7401 66.44 58.7301 66.48 58.7201C66.52 58.7101 66.5501 58.7 66.5901 58.69C66.6301 58.68 66.66 58.67 66.7 58.66C66.7 58.66 66.7701 58.6402 66.8101 58.6302C66.8501 58.6302 66.8799 58.6102 66.92 58.6002C66.92 58.6002 66.9901 58.5802 67.0301 58.5702C67.0301 58.5702 67.0999 58.5501 67.1399 58.5401C67.1799 58.5401 67.22 58.5201 67.25 58.5201C67.25 58.5201 67.3301 58.5001 67.3601 58.5001C67.4001 58.5001 67.44 58.4901 67.47 58.4801C67.51 58.4801 67.5501 58.4701 67.5801 58.4601C67.6201 58.4601 67.66 58.45 67.69 58.44C67.69 58.44 67.7701 58.43 67.8001 58.42C67.8001 58.42 67.8799 58.41 67.9099 58.4C67.9499 58.4 67.99 58.3902 68.02 58.3902C68.02 58.3902 68.0999 58.3902 68.1299 58.3802C68.1699 58.3802 68.21 58.3802 68.24 58.3702C68.28 58.3702 68.3201 58.3702 68.3501 58.3602C68.3901 58.3602 68.43 58.3602 68.46 58.3602C68.5 58.3602 68.5401 58.3602 68.5701 58.3602C68.5701 58.3602 68.65 58.3602 68.68 58.3602C68.72 58.3602 68.7601 58.3602 68.7901 58.3602C68.8301 58.3602 68.8699 58.3602 68.8999 58.3602C68.9399 58.3602 68.98 58.3602 69.01 58.3602C69.01 58.3602 69.0901 58.3602 69.1201 58.3602C69.1601 58.3602 69.2 58.3602 69.23 58.3602C69.27 58.3602 69.3101 58.3602 69.3401 58.3602C69.3801 58.3602 69.42 58.3602 69.45 58.3602C70.33 58.3902 71.2001 58.5502 72.0401 58.8302C73.3301 59.2602 74.5401 59.9801 75.5601 61.0001L82.3401 67.7801L84.26 69.7001L86.18 67.7801L88.8999 65.0602L91.49 62.4701L96.18 57.7801C93.28 54.8801 90.38 51.9802 87.48 49.0802C84.09 45.6902 79.9799 43.4402 75.6399 42.3302C74.7599 42.1002 73.86 41.9201 72.96 41.7901C65.09 40.6301 56.77 43.0602 50.75 49.0802C44.72 55.1102 42.29 63.4201 43.46 71.2901C43.59 72.1901 43.77 73.0801 44 73.9701C45.12 78.3201 47.37 82.4302 50.75 85.8102L53.1201 88.18C63.5001 98.56 73.88 108.94 84.26 119.32L84.3601 119.26Z" fill="black"/>
</svg>
