<svg xmlns="http://www.w3.org/2000/svg" version="1.1" xmlns:xlink="http://www.w3.org/1999/xlink" width="39" height="39"><svg width="39" height="39" viewBox="0 0 39 39" fill="none" xmlns="http://www.w3.org/2000/svg">
<rect width="39" height="39" fill="black"></rect>
<path d="M21.638 27.9015V27.8434H21.58L21.638 26.8954H22.5861V27.8434L21.638 27.9015ZM21.638 28.7915H20.6899V27.8434L21.638 27.7854V27.8434H21.696L21.638 28.7915ZM20.6899 27.8434V26.8954H21.638L21.696 27.8434H21.638V27.9015L20.6899 27.8434ZM21.638 28.7915L21.58 27.8434H21.638V27.7854L22.5861 27.8434V28.7915H21.638ZM31.5442 27.9015V27.8434H31.4862L31.5442 26.8954H32.4923V27.8434L31.5442 27.9015ZM31.5442 28.7915H30.5962V27.8434L31.5442 27.7854V27.8434H31.6023L31.5442 28.7915ZM30.5962 27.8434V26.8954H31.5442L31.6023 27.8434H31.5442V27.9015L30.5962 27.8434ZM31.5442 28.7915L31.4862 27.8434H31.5442V27.7854L32.4923 27.8434V28.7915H31.5442ZM21.638 30.378V30.32H21.58L21.638 29.3719H22.5861V30.32L21.638 30.378ZM21.638 31.268H20.6899V30.32L21.638 30.2619V30.32H21.696L21.638 31.268ZM20.6899 30.32V29.3719H21.638L21.696 30.32H21.638V30.378L20.6899 30.32ZM21.638 31.268L21.58 30.32H21.638V30.2619L22.5861 30.32V31.268H21.638ZM26.5911 30.378V30.32H26.5331L26.5911 29.3719H27.5392V30.32L26.5911 30.378ZM26.5911 31.268H25.6431V30.32L26.5911 30.2619V30.32H26.6492L26.5911 31.268ZM25.6431 30.32V29.3719H26.5911L26.6492 30.32H26.5911V30.378L25.6431 30.32ZM26.5911 31.268L26.5331 30.32H26.5911V30.2619L27.5392 30.32V31.268H26.5911ZM29.0677 30.378V30.32H29.0096L29.0677 29.3719H30.0157V30.32L29.0677 30.378ZM29.0677 31.268H28.1196V30.32L29.0677 30.2619V30.32H29.1257L29.0677 31.268ZM28.1196 30.32V29.3719H29.0677L29.1257 30.32H29.0677V30.378L28.1196 30.32ZM29.0677 31.268L29.0096 30.32H29.0677V30.2619L30.0157 30.32V31.268H29.0677ZM26.5911 20.4718V20.4138H26.5331L26.5911 19.4657H27.5392V20.4138L26.5911 20.4718ZM26.5911 21.3618H25.6431V20.4138L26.5911 20.3557V20.4138H26.6492L26.5911 21.3618ZM25.6431 20.4138V19.4657H26.5911L26.6492 20.4138H26.5911V20.4718L25.6431 20.4138ZM26.5911 21.3618L26.5331 20.4138H26.5911V20.3557L27.5392 20.4138V21.3618H26.5911ZM29.0677 20.4718V20.4138H29.0096L29.0677 19.4657H30.0157V20.4138L29.0677 20.4718ZM29.0677 21.3618H28.1196V20.4138L29.0677 20.3557V20.4138H29.1257L29.0677 21.3618ZM28.1196 20.4138V19.4657H29.0677L29.1257 20.4138H29.0677V20.4718L28.1196 20.4138ZM29.0677 21.3618L29.0096 20.4138H29.0677V20.3557L30.0157 20.4138V21.3618H29.0677ZM31.5442 22.9484V22.8903H31.4862L31.5442 21.9423H32.4923V22.8903L31.5442 22.9484ZM31.5442 23.8384H30.5962V22.8903L31.5442 22.8323V22.8903H31.6023L31.5442 23.8384ZM30.5962 22.8903V21.9423H31.5442L31.6023 22.8903H31.5442V22.9484L30.5962 22.8903ZM31.5442 23.8384L31.4862 22.8903H31.5442V22.8323L32.4923 22.8903V23.8384H31.5442ZM21.638 25.4249V25.3669H21.58L21.638 24.4188H22.5861V25.3669L21.638 25.4249ZM21.638 26.3149H20.6899V25.3669L21.638 25.3088V25.3669H21.696L21.638 26.3149ZM20.6899 25.3669V24.4188H21.638L21.696 25.3669H21.638V25.4249L20.6899 25.3669ZM21.638 26.3149L21.58 25.3669H21.638V25.3088L22.5861 25.3669V26.3149H21.638ZM31.5442 25.4249V25.3669H31.4862L31.5442 24.4188H32.4923V25.3669L31.5442 25.4249ZM31.5442 26.3149H30.5962V25.3669L31.5442 25.3088V25.3669H31.6023L31.5442 26.3149ZM30.5962 25.3669V24.4188H31.5442L31.6023 25.3669H31.5442V25.4249L30.5962 25.3669ZM31.5442 26.3149L31.4862 25.3669H31.5442V25.3088L32.4923 25.3669V26.3149H31.5442Z" fill="white"></path>
<path d="M7.38556 30.3779V30.3199H7.32751L7.38556 29.3718H8.33361V30.3199L7.38556 30.3779ZM7.38556 31.2679H6.4375V30.3199L7.38556 30.2618V30.3199H7.4436L7.38556 31.2679ZM6.4375 30.3199V29.3718H7.38556L7.4436 30.3199H7.38556V30.3779L6.4375 30.3199ZM7.38556 31.2679L7.32751 30.3199H7.38556V30.2618L8.33361 30.3199V31.2679H7.38556ZM7.38556 27.9013V27.8433H7.32751L7.38556 26.8952H8.33361V27.8433L7.38556 27.9013ZM7.38556 28.7914H6.4375V27.8433L7.38556 27.7853V27.8433H7.4436L7.38556 28.7914ZM6.4375 27.8433V26.8952H7.38556L7.4436 27.8433H7.38556V27.9013L6.4375 27.8433ZM7.38556 28.7914L7.32751 27.8433H7.38556V27.7853L8.33361 27.8433V28.7914H7.38556ZM9.86211 27.9013V27.8433H9.80407L9.86211 26.8952H10.8102V27.8433L9.86211 27.9013ZM9.86211 28.7914H8.91406V27.8433L9.86211 27.7853V27.8433H9.92016L9.86211 28.7914ZM8.91406 27.8433V26.8952H9.86211L9.92016 27.8433H9.86211V27.9013L8.91406 27.8433ZM9.86211 28.7914L9.80407 27.8433H9.86211V27.7853L10.8102 27.8433V28.7914H9.86211ZM12.3387 27.9013V27.8433H12.2806L12.3387 26.8952H13.2867V27.8433L12.3387 27.9013ZM12.3387 28.7914H11.3906V27.8433L12.3387 27.7853V27.8433H12.3967L12.3387 28.7914ZM11.3906 27.8433V26.8952H12.3387L12.3967 27.8433H12.3387V27.9013L11.3906 27.8433ZM12.3387 28.7914L12.2806 27.8433H12.3387V27.7853L13.2867 27.8433V28.7914H12.3387ZM14.8152 27.9013V27.8433H14.7572L14.8152 26.8952H15.7633V27.8433L14.8152 27.9013ZM14.8152 28.7914H13.8672V27.8433L14.8152 27.7853V27.8433H14.8733L14.8152 28.7914ZM13.8672 27.8433V26.8952H14.8152L14.8733 27.8433H14.8152V27.9013L13.8672 27.8433ZM14.8152 28.7914L14.7572 27.8433H14.8152V27.7853L15.7633 27.8433V28.7914H14.8152ZM17.2918 27.9013V27.8433H17.2337L17.2918 26.8952H18.2398V27.8433L17.2918 27.9013ZM17.2918 28.7914H16.3437V27.8433L17.2918 27.7853V27.8433H17.3498L17.2918 28.7914ZM16.3437 27.8433V26.8952H17.2918L17.3498 27.8433H17.2918V27.9013L16.3437 27.8433ZM17.2918 28.7914L17.2337 27.8433H17.2918V27.7853L18.2398 27.8433V28.7914H17.2918ZM17.2918 30.3779V30.3199H17.2337L17.2918 29.3718H18.2398V30.3199L17.2918 30.3779ZM17.2918 31.2679H16.3437V30.3199L17.2918 30.2618V30.3199H17.3498L17.2918 31.2679ZM16.3437 30.3199V29.3718H17.2918L17.3498 30.3199H17.2918V30.3779L16.3437 30.3199ZM17.2918 31.2679L17.2337 30.3199H17.2918V30.2618L18.2398 30.3199V31.2679H17.2918ZM9.86211 22.9482V22.8902H9.80407L9.86211 21.9421H10.8102V22.8902L9.86211 22.9482ZM9.86211 23.8382H8.91406V22.8902L9.86211 22.8321V22.8902H9.92016L9.86211 23.8382ZM8.91406 22.8902V21.9421H9.86211L9.92016 22.8902H9.86211V22.9482L8.91406 22.8902ZM9.86211 23.8382L9.80407 22.8902H9.86211V22.8321L10.8102 22.8902V23.8382H9.86211ZM12.3387 22.9482V22.8902H12.2806L12.3387 21.9421H13.2867V22.8902L12.3387 22.9482ZM12.3387 23.8382H11.3906V22.8902L12.3387 22.8321V22.8902H12.3967L12.3387 23.8382ZM11.3906 22.8902V21.9421H12.3387L12.3967 22.8902H12.3387V22.9482L11.3906 22.8902ZM12.3387 23.8382L12.2806 22.8902H12.3387V22.8321L13.2867 22.8902V23.8382H12.3387ZM14.8152 22.9482V22.8902H14.7572L14.8152 21.9421H15.7633V22.8902L14.8152 22.9482ZM14.8152 23.8382H13.8672V22.8902L14.8152 22.8321V22.8902H14.8733L14.8152 23.8382ZM13.8672 22.8902V21.9421H14.8152L14.8733 22.8902H14.8152V22.9482L13.8672 22.8902ZM14.8152 23.8382L14.7572 22.8902H14.8152V22.8321L15.7633 22.8902V23.8382H14.8152ZM12.3387 20.4717V20.4136H12.2806L12.3387 19.4656H13.2867V20.4136L12.3387 20.4717ZM12.3387 21.3617H11.3906V20.4136L12.3387 20.3556V20.4136H12.3967L12.3387 21.3617ZM11.3906 20.4136V19.4656H12.3387L12.3967 20.4136H12.3387V20.4717L11.3906 20.4136ZM12.3387 21.3617L12.2806 20.4136H12.3387V20.3556L13.2867 20.4136V21.3617H12.3387Z" fill="white"></path>
<path d="M21.5726 16.1831V16.125H21.5145L21.5726 15.177H22.5206V16.125L21.5726 16.1831ZM21.5726 17.0731H20.6245V16.125L21.5726 16.067V16.125H21.6306L21.5726 17.0731ZM20.6245 16.125V15.177H21.5726L21.6306 16.125H21.5726V16.1831L20.6245 16.125ZM21.5726 17.0731L21.5145 16.125H21.5726V16.067L22.5206 16.125V17.0731H21.5726ZM24.0491 16.1831V16.125H23.9911L24.0491 15.177H24.9972V16.125L24.0491 16.1831ZM24.0491 17.0731H23.1011V16.125L24.0491 16.067V16.125H24.1072L24.0491 17.0731ZM23.1011 16.125V15.177H24.0491L24.1072 16.125H24.0491V16.1831L23.1011 16.125ZM24.0491 17.0731L23.9911 16.125H24.0491V16.067L24.9972 16.125V17.0731H24.0491ZM26.5257 16.1831V16.125H26.4676L26.5257 15.177H27.4737V16.125L26.5257 16.1831ZM26.5257 17.0731H25.5776V16.125L26.5257 16.067V16.125H26.5837L26.5257 17.0731ZM25.5776 16.125V15.177H26.5257L26.5837 16.125H26.5257V16.1831L25.5776 16.125ZM26.5257 17.0731L26.4676 16.125H26.5257V16.067L27.4737 16.125V17.0731H26.5257ZM29.0022 16.1831V16.125H28.9442L29.0022 15.177H29.9503V16.125L29.0022 16.1831ZM29.0022 17.0731H28.0542V16.125L29.0022 16.067V16.125H29.0603L29.0022 17.0731ZM28.0542 16.125V15.177H29.0022L29.0603 16.125H29.0022V16.1831L28.0542 16.125ZM29.0022 17.0731L28.9442 16.125H29.0022V16.067L29.9503 16.125V17.0731H29.0022ZM21.5726 18.6596V18.6016H21.5145L21.5726 17.6535H22.5206V18.6016L21.5726 18.6596ZM21.5726 19.5497H20.6245V18.6016L21.5726 18.5436V18.6016H21.6306L21.5726 19.5497ZM20.6245 18.6016V17.6535H21.5726L21.6306 18.6016H21.5726V18.6596L20.6245 18.6016ZM21.5726 19.5497L21.5145 18.6016H21.5726V18.5436L22.5206 18.6016V19.5497H21.5726ZM21.5726 21.1362V21.0782H21.5145L21.5726 20.1301H22.5206V21.0782L21.5726 21.1362ZM21.5726 22.0262H20.6245V21.0782L21.5726 21.0201V21.0782H21.6306L21.5726 22.0262ZM20.6245 21.0782V20.1301H21.5726L21.6306 21.0782H21.5726V21.1362L20.6245 21.0782ZM21.5726 22.0262L21.5145 21.0782H21.5726V21.0201L22.5206 21.0782V22.0262H21.5726ZM21.5726 8.75342V8.69537H21.5145L21.5726 7.74731H22.5206V8.69537L21.5726 8.75342ZM21.5726 9.64343H20.6245V8.69537L21.5726 8.63733V8.69537H21.6306L21.5726 9.64343ZM20.6245 8.69537V7.74731H21.5726L21.6306 8.69537H21.5726V8.75342L20.6245 8.69537ZM21.5726 9.64343L21.5145 8.69537H21.5726V8.63733L22.5206 8.69537V9.64343H21.5726ZM24.0491 8.75342V8.69537H23.9911L24.0491 7.74731H24.9972V8.69537L24.0491 8.75342ZM24.0491 9.64343H23.1011V8.69537L24.0491 8.63733V8.69537H24.1072L24.0491 9.64343ZM23.1011 8.69537V7.74731H24.0491L24.1072 8.69537H24.0491V8.75342L23.1011 8.69537ZM24.0491 9.64343L23.9911 8.69537H24.0491V8.63733L24.9972 8.69537V9.64343H24.0491ZM26.5257 8.75342V8.69537H26.4676L26.5257 7.74731H27.4737V8.69537L26.5257 8.75342ZM26.5257 9.64343H25.5776V8.69537L26.5257 8.63733V8.69537H26.5837L26.5257 9.64343ZM25.5776 8.69537V7.74731H26.5257L26.5837 8.69537H26.5257V8.75342L25.5776 8.69537ZM26.5257 9.64343L26.4676 8.69537H26.5257V8.63733L27.4737 8.69537V9.64343H26.5257ZM29.0022 8.75342V8.69537H28.9442L29.0022 7.74731H29.9503V8.69537L29.0022 8.75342ZM29.0022 9.64343H28.0542V8.69537L29.0022 8.63733V8.69537H29.0603L29.0022 9.64343ZM28.0542 8.69537V7.74731H29.0022L29.0603 8.69537H29.0022V8.75342L28.0542 8.69537ZM29.0022 9.64343L28.9442 8.69537H29.0022V8.63733L29.9503 8.69537V9.64343H29.0022ZM31.4788 11.23V11.1719H31.4208L31.4788 10.2239H32.4269V11.1719L31.4788 11.23ZM31.4788 12.12H30.5307V11.1719L31.4788 11.1139V11.1719H31.5368L31.4788 12.12ZM30.5307 11.1719V10.2239H31.4788L31.5368 11.1719H31.4788V11.23L30.5307 11.1719ZM31.4788 12.12L31.4208 11.1719H31.4788V11.1139L32.4269 11.1719V12.12H31.4788ZM21.5726 13.7065V13.6485H21.5145L21.5726 12.7004H22.5206V13.6485L21.5726 13.7065ZM21.5726 14.5965H20.6245V13.6485L21.5726 13.5904V13.6485H21.6306L21.5726 14.5965ZM20.6245 13.6485V12.7004H21.5726L21.6306 13.6485H21.5726V13.7065L20.6245 13.6485ZM21.5726 14.5965L21.5145 13.6485H21.5726V13.5904L22.5206 13.6485V14.5965H21.5726ZM31.4788 13.7065V13.6485H31.4208L31.4788 12.7004H32.4269V13.6485L31.4788 13.7065ZM31.4788 14.5965H30.5307V13.6485L31.4788 13.5904V13.6485H31.5368L31.4788 14.5965ZM30.5307 13.6485V12.7004H31.4788L31.5368 13.6485H31.4788V13.7065L30.5307 13.6485ZM31.4788 14.5965L31.4208 13.6485H31.4788V13.5904L32.4269 13.6485V14.5965H31.4788Z" fill="white"></path>
<path d="M9.73223 16.1831V16.125H9.67419L9.73223 15.177H10.6803V16.125L9.73223 16.1831ZM9.73223 17.0731H8.78417V16.125L9.73223 16.067V16.125H9.79028L9.73223 17.0731ZM8.78417 16.125V15.177H9.73223L9.79028 16.125H9.73223V16.1831L8.78417 16.125ZM9.73223 17.0731L9.67419 16.125H9.73223V16.067L10.6803 16.125V17.0731H9.73223ZM14.6853 16.1831V16.125H14.6273L14.6853 15.177H15.6334V16.125L14.6853 16.1831ZM14.6853 17.0731H13.7373V16.125L14.6853 16.067V16.125H14.7434L14.6853 17.0731ZM13.7373 16.125V15.177H14.6853L14.7434 16.125H14.6853V16.1831L13.7373 16.125ZM14.6853 17.0731L14.6273 16.125H14.6853V16.067L15.6334 16.125V17.0731H14.6853ZM7.25567 18.6596V18.6016H7.19763L7.25567 17.6535H8.20373V18.6016L7.25567 18.6596ZM7.25567 19.5497H6.30762V18.6016L7.25567 18.5436V18.6016H7.31372L7.25567 19.5497ZM6.30762 18.6016V17.6535H7.25567L7.31372 18.6016H7.25567V18.6596L6.30762 18.6016ZM7.25567 19.5497L7.19763 18.6016H7.25567V18.5436L8.20373 18.6016V19.5497H7.25567ZM17.1619 18.6596V18.6016H17.1039L17.1619 17.6535H18.11V18.6016L17.1619 18.6596ZM17.1619 19.5497H16.2138V18.6016L17.1619 18.5436V18.6016H17.2199L17.1619 19.5497ZM16.2138 18.6016V17.6535H17.1619L17.2199 18.6016H17.1619V18.6596L16.2138 18.6016ZM17.1619 19.5497L17.1039 18.6016H17.1619V18.5436L18.11 18.6016V19.5497H17.1619ZM7.25567 8.75342V8.69537H7.19763L7.25567 7.74731H8.20373V8.69537L7.25567 8.75342ZM7.25567 9.64343H6.30762V8.69537L7.25567 8.63733V8.69537H7.31372L7.25567 9.64343ZM6.30762 8.69537V7.74731H7.25567L7.31372 8.69537H7.25567V8.75342L6.30762 8.69537ZM7.25567 9.64343L7.19763 8.69537H7.25567V8.63733L8.20373 8.69537V9.64343H7.25567ZM17.1619 8.75342V8.69537H17.1039L17.1619 7.74731H18.11V8.69537L17.1619 8.75342ZM17.1619 9.64343H16.2138V8.69537L17.1619 8.63733V8.69537H17.2199L17.1619 9.64343ZM16.2138 8.69537V7.74731H17.1619L17.2199 8.69537H17.1619V8.75342L16.2138 8.69537ZM17.1619 9.64343L17.1039 8.69537H17.1619V8.63733L18.11 8.69537V9.64343H17.1619ZM9.73223 11.23V11.1719H9.67419L9.73223 10.2239H10.6803V11.1719L9.73223 11.23ZM9.73223 12.12H8.78417V11.1719L9.73223 11.1139V11.1719H9.79028L9.73223 12.12ZM8.78417 11.1719V10.2239H9.73223L9.79028 11.1719H9.73223V11.23L8.78417 11.1719ZM9.73223 12.12L9.67419 11.1719H9.73223V11.1139L10.6803 11.1719V12.12H9.73223ZM14.6853 11.23V11.1719H14.6273L14.6853 10.2239H15.6334V11.1719L14.6853 11.23ZM14.6853 12.12H13.7373V11.1719L14.6853 11.1139V11.1719H14.7434L14.6853 12.12ZM13.7373 11.1719V10.2239H14.6853L14.7434 11.1719H14.6853V11.23L13.7373 11.1719ZM14.6853 12.12L14.6273 11.1719H14.6853V11.1139L15.6334 11.1719V12.12H14.6853ZM12.2088 13.7065V13.6485H12.1507L12.2088 12.7004H13.1568V13.6485L12.2088 13.7065ZM12.2088 14.5965H11.2607V13.6485L12.2088 13.5904V13.6485H12.2668L12.2088 14.5965ZM11.2607 13.6485V12.7004H12.2088L12.2668 13.6485H12.2088V13.7065L11.2607 13.6485ZM12.2088 14.5965L12.1507 13.6485H12.2088V13.5904L13.1568 13.6485V14.5965H12.2088Z" fill="white"></path>
</svg><style>@media (prefers-color-scheme: light) { :root { filter: none; } }
@media (prefers-color-scheme: dark) { :root { filter: none; } }
</style></svg>